<svg width="150" height="150" viewBox="0 0 150 150" fill="none" xmlns="http://www.w3.org/2000/svg">
<path d="M98.9621 112.537C94.3314 117.064 89.2224 116.358 84.3525 114.224C79.1751 112.046 74.4419 111.909 68.974 114.224C62.1648 117.184 58.5508 116.324 54.4499 112.537C31.2967 88.5245 34.7142 51.9467 61.0285 50.5697C67.4105 50.9139 71.8788 54.1242 75.638 54.391C81.2255 53.2463 86.5738 49.9672 92.5544 50.3975C99.7395 50.9828 105.113 53.8401 108.702 58.9783C93.9213 67.9291 97.4242 87.552 111 93.0602C108.283 100.247 104.797 107.347 98.9535 112.597L98.9621 112.537ZM75.1254 50.3115C74.4334 39.6393 83.0197 30.8607 92.8961 30C94.2545 42.3074 81.7894 51.5164 75.1254 50.3115Z" fill="white"/>
</svg>
