<svg width="150" height="150" viewBox="0 0 150 150" fill="none" xmlns="http://www.w3.org/2000/svg">
<g filter="url(#filter0_b)">
<rect y="99" width="150" height="51" fill="black" fill-opacity="0.4"/>
</g>
<path d="M54.2969 124.379H61.0938V133.262C59.9922 133.621 58.9531 133.871 57.9766 134.012C57.0078 134.16 56.0156 134.234 55 134.234C52.4141 134.234 50.4375 133.477 49.0703 131.961C47.7109 130.438 47.0312 128.254 47.0312 125.41C47.0312 122.645 47.8203 120.488 49.3984 118.941C50.9844 117.395 53.1797 116.621 55.9844 116.621C57.7422 116.621 59.4375 116.973 61.0703 117.676L59.8633 120.582C58.6133 119.957 57.3125 119.645 55.9609 119.645C54.3906 119.645 53.1328 120.172 52.1875 121.227C51.2422 122.281 50.7695 123.699 50.7695 125.48C50.7695 127.34 51.1484 128.762 51.9062 129.746C52.6719 130.723 53.7812 131.211 55.2344 131.211C55.9922 131.211 56.7617 131.133 57.543 130.977V127.402H54.2969V124.379ZM70.1836 134V116.867H73.8164V131H80.7656V134H70.1836ZM102.969 125.27C102.969 128.09 102.164 130.25 100.555 131.75C98.9531 133.25 96.6367 134 93.6055 134H88.7539V116.867H94.1328C96.9297 116.867 99.1016 117.605 100.648 119.082C102.195 120.559 102.969 122.621 102.969 125.27ZM99.1953 125.363C99.1953 121.684 97.5703 119.844 94.3203 119.844H92.3867V131H93.9453C97.4453 131 99.1953 129.121 99.1953 125.363Z" fill="white"/>
<path fill-rule="evenodd" clip-rule="evenodd" d="M40.0139 44.0198H47.0139C47.0139 44.0198 48.0759 36.2068 36.0139 35.0198C36.0139 35.0198 24.1389 34.1448 23.0139 44.0198C23.0139 44.0198 22.2009 50.4568 33.0139 52.0198C33.0139 52.0198 40.2009 52.7698 40.0139 56.0198C40.0139 56.0198 40.1389 59.7068 34.0139 59.0198C34.0139 59.0198 30.0139 58.5818 30.0139 55.0198H23.0139C23.0139 55.0198 22.7639 63.3948 35.0139 64.0198C35.0139 64.0198 45.5139 65.2068 47.0139 56.0198C47.0139 56.0198 47.5139 49.3948 41.0139 48.0198C41.0139 48.0198 37.7009 47.2068 36.0139 47.0198C34.3259 46.8318 31.1729 45.3868 31.0139 44.0198C30.7719 41.9388 33.3259 41.0198 35.0139 41.0198C36.8979 41.0198 39.2639 41.3318 40.0139 44.0198Z" fill="white"/>
<path fill-rule="evenodd" clip-rule="evenodd" d="M50.0139 36.0198H57.0139V64.0198H50.0139V36.0198Z" fill="white"/>
<path fill-rule="evenodd" clip-rule="evenodd" d="M64.5138 53.0198H57.5138C47.8398 53.0198 47.8398 36.0198 57.5138 36.0198H64.5138C69.2078 36.0198 73.0138 39.8258 73.0138 44.5198C73.0138 49.2138 69.2078 53.0198 64.5138 53.0198ZM62.5138 41.0198H58.5138C56.5808 41.0198 55.0138 42.5868 55.0138 44.5198C55.0138 46.4528 56.5808 48.0198 58.5138 48.0198H62.5138C64.4468 48.0198 66.0138 46.4528 66.0138 44.5198C66.0138 42.5868 64.4468 41.0198 62.5138 41.0198Z" fill="white"/>
<path fill-rule="evenodd" clip-rule="evenodd" d="M103.014 36.0198H110.014V64.0198H103.014V36.0198Z" fill="white"/>
<path fill-rule="evenodd" clip-rule="evenodd" d="M117.514 53.0198H110.514C100.84 53.0198 100.84 36.0198 110.514 36.0198H117.514C122.208 36.0198 126.014 39.8258 126.014 44.5198C126.014 49.2138 122.208 53.0198 117.514 53.0198ZM115.514 41.0198H111.514C109.581 41.0198 108.014 42.5868 108.014 44.5198C108.014 46.4528 109.581 48.0198 111.514 48.0198H115.514C117.447 48.0198 119.014 46.4528 119.014 44.5198C119.014 42.5868 117.447 41.0198 115.514 41.0198Z" fill="white"/>
<path fill-rule="evenodd" clip-rule="evenodd" d="M115.014 53.0198L119.014 64.0198H127.014L122.014 51.0198L115.014 53.0198Z" fill="white"/>
<path fill-rule="evenodd" clip-rule="evenodd" d="M76.0139 36.0198H83.0139V64.0198H76.0139V36.0198Z" fill="white"/>
<path fill-rule="evenodd" clip-rule="evenodd" d="M90.0139 64.0198H80.0139V57.9188C80.3369 57.9848 80.6709 58.0198 81.0139 58.0198H88.0139C90.7749 58.0198 93.0139 55.7808 93.0139 53.0198V47.0198C93.0139 44.2588 90.7749 42.0198 88.0139 42.0198H81.0139C80.6709 42.0198 80.3369 42.0548 80.0139 42.1208V36.0198H90.0139C95.5369 36.0198 100.014 40.4968 100.014 46.0198V54.0198C100.014 59.5428 95.5369 64.0198 90.0139 64.0198Z" fill="white"/>
<defs>
<filter id="filter0_b" x="-10.8731" y="88.1269" width="171.746" height="72.7463" filterUnits="userSpaceOnUse" color-interpolation-filters="sRGB">
<feFlood flood-opacity="0" result="BackgroundImageFix"/>
<feGaussianBlur in="BackgroundImage" stdDeviation="5.43656"/>
<feComposite in2="SourceAlpha" operator="in" result="effect1_backgroundBlur"/>
<feBlend mode="normal" in="SourceGraphic" in2="effect1_backgroundBlur" result="shape"/>
</filter>
</defs>
</svg>
