<svg width="150" height="150" viewBox="0 0 150 150" fill="none" xmlns="http://www.w3.org/2000/svg">
<g filter="url(#filter0_b)">
<rect y="99" width="150" height="51" fill="black" fill-opacity="0.4"/>
</g>
<path d="M55.0234 116.867H58.6914L52.8672 134H48.9062L43.0938 116.867H46.7617L49.9844 127.062C50.1641 127.664 50.3477 128.367 50.5352 129.172C50.7305 129.969 50.8516 130.523 50.8984 130.836C50.9844 130.117 51.2773 128.859 51.7773 127.062L55.0234 116.867ZM81.4102 125.41C81.4102 128.246 80.707 130.426 79.3008 131.949C77.8945 133.473 75.8789 134.234 73.2539 134.234C70.6289 134.234 68.6133 133.473 67.207 131.949C65.8008 130.426 65.0977 128.238 65.0977 125.387C65.0977 122.535 65.8008 120.359 67.207 118.859C68.6211 117.352 70.6445 116.598 73.2773 116.598C75.9102 116.598 77.9219 117.355 79.3125 118.871C80.7109 120.387 81.4102 122.566 81.4102 125.41ZM68.9062 125.41C68.9062 127.324 69.2695 128.766 69.9961 129.734C70.7227 130.703 71.8086 131.188 73.2539 131.188C76.1523 131.188 77.6016 129.262 77.6016 125.41C77.6016 121.551 76.1602 119.621 73.2773 119.621C71.832 119.621 70.7422 120.109 70.0078 121.086C69.2734 122.055 68.9062 123.496 68.9062 125.41ZM105.512 125.41C105.512 128.246 104.809 130.426 103.402 131.949C101.996 133.473 99.9805 134.234 97.3555 134.234C94.7305 134.234 92.7148 133.473 91.3086 131.949C89.9023 130.426 89.1992 128.238 89.1992 125.387C89.1992 122.535 89.9023 120.359 91.3086 118.859C92.7227 117.352 94.7461 116.598 97.3789 116.598C100.012 116.598 102.023 117.355 103.414 118.871C104.812 120.387 105.512 122.566 105.512 125.41ZM93.0078 125.41C93.0078 127.324 93.3711 128.766 94.0977 129.734C94.8242 130.703 95.9102 131.188 97.3555 131.188C100.254 131.188 101.703 129.262 101.703 125.41C101.703 121.551 100.262 119.621 97.3789 119.621C95.9336 119.621 94.8438 120.109 94.1094 121.086C93.375 122.055 93.0078 123.496 93.0078 125.41Z" fill="white"/>
<path d="M56.73 68.0899H62.6V67.9299C62.6 67.9299 61.41 67.9299 61.44 65.7799V59.2199C61.44 54.6599 56.83 54.8299 56.83 54.8299C55.4945 54.88 54.2254 55.4255 53.27 56.3599V54.8399L47.35 55.0799V55.2499C48.58 55.3299 48.47 57.1799 48.47 57.2499V66.1499H47.37C46.2121 66.0906 45.319 65.1082 45.37 63.9499C45.37 63.9499 45.31 59.8399 45.31 59.8699C45.4672 58.3481 44.819 56.8545 43.6 55.9299C40.29 53.9299 35.54 55.2899 35.54 55.2899C35.54 55.2899 34.54 58.4999 34.54 58.4799C39.54 56.2699 40.4 58.4799 40.38 58.3799C40.4373 58.569 40.4373 58.7708 40.38 58.9599C40.22 59.9599 38.47 60.1699 38.45 60.1699C37.3757 60.3433 36.3161 60.5974 35.28 60.9299C32.14 62.0099 32.6 64.6699 32.6 64.7299C33.15 68.1899 37.82 68.0899 37.82 68.0899H39.82L40.82 66.0199C38.74 66.4399 38.1 65.2999 38.1 65.2999C37.8505 64.9427 37.7565 64.4995 37.8394 64.0718C37.9223 63.644 38.1751 63.2681 38.54 63.0299C39.2172 62.6741 39.9409 62.4149 40.69 62.2599V64.3599C40.86 68.2399 44.99 68.0999 45.12 68.0899H54.45V67.9399C54.45 67.9399 53.35 67.9399 53.3 66.0499V60.0499C53.3 57.8299 55.09 57.7999 55.09 57.7999C56.87 57.7999 56.74 59.3599 56.75 59.7199V65.7799V68.0899" fill="#EBEBEB"/>
<path d="M30.3 49.03V49.18C31.3261 49.568 31.8481 50.7102 31.47 51.74L28.06 62.67L23.45 49.06H17V49.25C18.11 49.5 18.64 51.43 18.64 51.43L22.88 63.21C24.05 66.53 26.24 67.21 26.24 67.21L28.94 68.21L35.45 49H30.3" fill="#EBEBEB"/>
<path d="M131.6 65.7801V49.0601L125.6 49.3001V49.4601C126.83 49.5401 126.72 51.4001 126.72 51.4601V55.7901C124.465 54.2374 121.417 54.5464 119.52 56.5201C118.316 57.9102 117.643 59.6814 117.62 61.5201C117.559 63.3501 118.245 65.1262 119.52 66.4401C120.882 67.9974 123.019 68.6318 125.01 68.0701C125.01 68.0701 126.31 65.7501 126.31 65.7301C122.6 66.3501 122.6 61.5401 122.62 61.5201C122.62 57.3901 124.81 57.6201 124.84 57.6001C126.72 57.6001 126.72 59.8001 126.72 59.7201V68.0801H132.72V67.9301C132.72 67.9301 131.52 68.0501 131.55 65.7701" fill="#EBEBEB"/>
<path d="M113.6 56.5599V54.8399L107.68 55.0799V55.2499C108.91 55.3299 108.8 57.1799 108.8 57.2499V65.0999V66.0999H107.6C106.447 66.0301 105.56 65.0542 105.6 63.8999C105.6 63.8999 105.55 59.7899 105.55 59.8199C105.689 58.3116 105.048 56.8369 103.85 55.9099C100.53 53.9099 95.79 55.2699 95.79 55.2699C95.79 55.2699 94.79 58.4799 94.79 58.4599C99.79 56.2499 100.65 58.4599 100.62 58.3599C100.702 58.5418 100.723 58.7451 100.68 58.9399C100.51 59.9399 98.77 60.1499 98.75 60.1499C97.6758 60.3233 96.6161 60.5773 95.58 60.9099C92.39 61.9899 92.81 64.6899 92.81 64.7099C93.35 68.1699 98.03 68.0699 98.03 68.0699H100.03L101.03 65.9999C98.96 66.4199 98.31 65.2799 98.31 65.2799C98.0615 64.9214 97.969 64.4774 98.0538 64.0495C98.1387 63.6216 98.3935 63.2464 98.76 63.0099C99.4372 62.6541 100.161 62.3949 100.91 62.2399V64.3399C101.07 68.2199 105.21 68.0799 105.33 68.0699H114.77V67.9099C114.71 67.9099 113.57 68.0099 113.59 65.7499V60.4499C113.59 60.4499 113.42 57.4499 117.42 58.0999V54.8399C115.899 54.4278 114.299 55.1482 113.6 56.5599Z" fill="#EBEBEB"/>
<path fill-rule="evenodd" clip-rule="evenodd" d="M69.26 54.8302H82.98V63.3202C82.98 63.3202 82.94 65.1402 84.6 65.1402C84.6 65.1372 84.6171 65.1375 84.648 65.1379C84.9312 65.142 86.3758 65.1629 86.52 62.9002V57.2502C86.52 57.2475 86.5201 57.2422 86.5203 57.2345C86.5257 57.041 86.5732 55.3271 85.4 55.2502V55.0802L91.32 54.8402V58.8102V65.8102C91.32 65.8114 91.3199 65.8147 91.3197 65.8197C91.3145 65.977 91.25 67.9121 92.49 67.9702V68.1202H86.49V66.5702C85.5332 67.5262 84.2515 68.0867 82.9 68.1402C82.9 68.1402 78.21 68.3002 78.21 63.7502V57.2402H74.6C74.7136 57.3538 74.8205 57.474 74.92 57.6002C76.1085 58.9833 76.1085 61.0271 74.92 62.4102C73.62 64.2502 69.43 64.7602 69.43 64.7602H69.17C67.72 64.8102 68.17 65.5402 68.17 65.5402C68.4 66.0302 69.4 65.9502 69.4 65.9502H71.78C76.65 65.9302 77.19 69.1502 77.19 69.1502C77.99 73.6602 73.49 75.0002 68.99 74.8802C64.54 74.9702 62.9 72.9702 62.9 72.9702C61.77 71.6502 62.37 69.8002 64.37 69.2402C65.4341 69.0075 66.5359 69.0075 67.6 69.2402C67.2424 69.2886 66.9206 69.4823 66.7105 69.7757C66.5004 70.069 66.4206 70.4361 66.49 70.7902C66.94 72.4202 69.22 72.4202 69.35 72.4202C72.27 72.2702 72.35 70.8402 72.35 70.1402C72.3232 69.5651 72.0499 69.0294 71.6 68.6702C70.8187 68.0686 69.4268 68.0896 68.1782 68.1085C67.8287 68.1138 67.4905 68.1189 67.18 68.1102C65.8437 67.9733 64.7827 66.9248 64.63 65.5902C64.54 65.0302 64.65 64.8002 64.97 64.5902C65.5375 64.3522 66.1319 64.1843 66.74 64.0902C65.6736 63.6888 64.7415 62.9958 64.05 62.0902C62.8052 60.4202 62.9578 58.0934 64.41 56.6002C65.7483 55.4242 67.4788 54.7926 69.26 54.8302ZM67.79 59.5102C67.6 61.9202 69.32 62.0502 69.45 62.0502C71.1978 62.0502 71.062 59.6818 71.0506 59.483C71.0502 59.4759 71.05 59.4716 71.05 59.4702C71.02 57.2902 69.46 57.3502 69.46 57.3502C67.79 57.3502 67.79 59.5102 67.79 59.5102Z" fill="#EBEBEB"/>
<defs>
<filter id="filter0_b" x="-10.8731" y="88.1269" width="171.746" height="72.7463" filterUnits="userSpaceOnUse" color-interpolation-filters="sRGB">
<feFlood flood-opacity="0" result="BackgroundImageFix"/>
<feGaussianBlur in="BackgroundImage" stdDeviation="5.43656"/>
<feComposite in2="SourceAlpha" operator="in" result="effect1_backgroundBlur"/>
<feBlend mode="normal" in="SourceGraphic" in2="effect1_backgroundBlur" result="shape"/>
</filter>
</defs>
</svg>
