<svg width="150" height="150" viewBox="0 0 150 150" fill="none" xmlns="http://www.w3.org/2000/svg">
<path fill-rule="evenodd" clip-rule="evenodd" d="M88.2045 123.701C88.7756 120.741 89.2949 117.6 89.7363 114.328C87.3996 114.666 85.011 114.925 82.6224 115.107C82.3888 118.586 82.1292 121.883 81.8436 124.999C83.9725 124.687 86.1274 124.246 88.2045 123.701ZM102.666 104.125C102.069 106.488 101.394 108.799 100.641 110.98C97.5251 111.836 94.2798 112.537 90.9825 113.057C91.2681 110.824 91.5537 108.487 91.7874 106.124C95.5 105.631 99.1608 104.956 102.666 104.125ZM107.183 74.9946C107.183 77.3312 107.131 79.6938 107.002 82.0564C109.416 81.9266 111.805 81.7968 114.063 81.641C114.193 79.4342 114.271 77.1754 114.271 74.9946C114.271 72.8137 114.219 70.5549 114.063 68.3481C111.779 68.1923 109.416 68.0625 107.002 67.9327C107.131 70.2953 107.183 72.6579 107.183 74.9946ZM42.9512 67.9327C42.8474 70.2953 42.7695 72.6579 42.7695 74.9946C42.7695 77.3312 42.8214 79.6938 42.9512 82.0564C40.5627 81.9266 38.1741 81.7968 35.8894 81.641C35.7595 79.4342 35.6816 77.1754 35.6816 74.9946C35.6816 72.8137 35.7336 70.5549 35.8894 68.3481C38.1741 68.1923 40.5367 68.0625 42.9512 67.9327ZM82.5965 92.1823C82.6744 89.4562 82.7263 86.6523 82.7522 83.8223C80.156 83.8483 77.5597 83.8742 74.9893 83.8742C72.419 83.8742 69.8227 83.8483 67.2265 83.8223C67.2524 86.6263 67.3044 89.4303 67.3822 92.1823C69.9006 92.2343 72.471 92.2602 74.9893 92.2602C77.5077 92.2602 80.0521 92.2343 82.5965 92.1823ZM83.1417 44.099C85.712 44.2548 88.2824 44.5144 90.8008 44.826C91.2162 48.7983 91.5277 52.9264 91.7614 57.1064C89.0872 56.9766 86.3611 56.8727 83.6091 56.7948C83.5052 52.459 83.3235 48.2011 83.1417 44.099ZM58.1914 43.8908C58.4251 41.5282 58.7107 39.1916 58.9963 36.9588C55.699 37.478 52.4277 38.205 49.3121 39.0358C48.5592 41.2167 47.8842 43.5274 47.287 45.89C50.792 45.0592 54.4528 44.3841 58.1914 43.8908ZM74.9893 57.7556C77.5077 57.7556 80.0781 57.7816 82.5965 57.8335C82.6484 60.5595 82.7003 63.3633 82.7522 66.1672L82.7522 66.1676C80.1819 66.1416 77.5597 66.1157 74.9893 66.1157C72.3931 66.1157 69.7968 66.1416 67.2265 66.1676C67.2524 63.3636 67.3044 60.5596 67.3822 57.8335C69.9006 57.7816 72.471 57.7556 74.9893 57.7556ZM38.1481 101.476C35.3441 100.49 32.67 99.3992 30.2035 98.2309C31.5016 100.723 33.0075 103.138 34.721 105.397C36.4605 106.279 38.3039 107.136 40.2251 107.915C39.4722 105.812 38.7712 103.683 38.1481 101.476ZM109.728 42.0994C111.649 42.8782 113.492 43.735 115.232 44.6178C116.945 46.8765 118.477 49.2651 119.749 51.7575C117.283 50.5892 114.609 49.4988 111.805 48.5122C111.208 46.3313 110.507 44.1764 109.728 42.0994Z" fill="#54C4A6"/>
<path fill-rule="evenodd" clip-rule="evenodd" d="M67.3298 115.091C64.9412 114.909 62.5526 114.65 60.216 114.312C60.6833 117.583 61.1766 120.751 61.7478 123.685C63.8248 124.256 65.9538 124.671 68.1087 124.957C67.8231 121.893 67.5635 118.57 67.3298 115.091ZM90.8002 105.173C91.1897 101.201 91.5272 97.0727 91.7349 92.8927C89.0607 93.0225 86.3346 93.1263 83.5825 93.2042C83.4787 97.54 83.3229 101.798 83.1152 105.9C85.7375 105.744 88.3078 105.511 90.8002 105.173ZM113.05 90.9716C112.505 94.2948 111.804 97.5402 110.947 100.656C108.767 101.409 106.456 102.084 104.119 102.655C104.95 99.1499 105.625 95.5151 106.118 91.7764C108.481 91.5427 110.792 91.2572 113.05 90.9716ZM115.075 82.6375C114.894 85.0261 114.634 87.4147 114.297 89.7513C117.568 89.284 120.735 88.7907 123.669 88.2195C124.24 86.1166 124.682 83.9876 124.967 81.8586C121.852 82.1442 118.528 82.4039 115.075 82.6375ZM44.0671 83.1829C48.1432 83.3906 52.4012 83.5464 56.7629 83.6503C56.8408 86.3764 56.9446 89.1025 57.0745 91.7766C52.8944 91.5689 48.7664 91.2314 44.794 90.842C44.4825 88.3495 44.2229 85.7792 44.0671 83.1829ZM104.093 47.3278C106.456 47.9249 108.766 48.6 110.947 49.3529C111.804 52.4684 112.505 55.7138 113.024 59.0111C110.792 58.7255 108.455 58.4399 106.092 58.2062C105.599 54.4935 104.924 50.8328 104.093 47.3278ZM88.2039 26.2981C86.1269 25.727 83.9979 25.3116 81.843 25C82.1286 28.0896 82.3882 31.4128 82.6219 34.8918C85.0105 35.0736 87.3991 35.3332 89.7357 35.6707C89.2684 32.3994 88.7491 29.2579 88.2039 26.2981ZM35.6551 60.2312C35.3176 62.5678 35.058 64.9564 34.8763 67.345C31.4232 67.5786 28.1 67.8383 25.0104 68.1239C25.296 65.9689 25.7114 63.84 26.2826 61.763C29.2164 61.1918 32.3838 60.6985 35.6551 60.2312ZM56.7629 66.3582C56.8408 63.6321 56.9446 60.8801 57.0745 58.2319C52.8944 58.4655 48.7664 58.7771 44.794 59.1665C44.4825 61.6849 44.2229 64.2553 44.0671 66.8256C48.1692 66.6438 52.4271 66.4881 56.7629 66.3582ZM74.9888 35.6969C77.1697 35.6969 79.4285 35.7488 81.6353 35.9046C81.7911 38.1894 81.9209 40.5779 82.0248 42.9665C79.6621 42.8627 77.2995 42.7848 74.9629 42.7848C72.6262 42.7848 70.2376 42.8367 67.901 42.9665C68.0308 40.5779 68.1606 38.1894 68.3164 35.9046C70.5492 35.7488 72.808 35.6969 74.9888 35.6969ZM48.5068 111.846C46.3259 111.223 44.171 110.522 42.0939 109.769C42.8728 111.69 43.7036 113.533 44.6123 115.273C46.8711 116.986 49.2597 118.492 51.7781 119.79C50.5578 117.324 49.4674 114.65 48.5068 111.846ZM98.1996 30.2184C100.718 31.5165 103.107 33.0223 105.365 34.7359C106.274 36.5014 107.105 38.3447 107.858 40.24C105.781 39.4871 103.626 38.7861 101.445 38.163C100.484 35.359 99.3939 32.6848 98.1996 30.2184Z" fill="#77B5E6"/>
<path fill-rule="evenodd" clip-rule="evenodd" d="M82.0411 107.004C81.9113 109.419 81.7815 111.808 81.6257 114.092C79.4189 114.248 77.1861 114.326 74.9792 114.3C72.7984 114.3 70.5656 114.248 68.3328 114.092C68.177 111.782 68.0472 109.419 67.9174 107.004C70.28 107.134 72.6426 107.186 74.9792 107.186C77.3159 107.186 79.6785 107.134 82.0411 107.004ZM45.849 102.695C43.4863 102.098 41.2016 101.423 39.0207 100.67C38.164 97.5541 37.463 94.3087 36.9437 90.9855C39.1765 91.2711 41.5132 91.5566 43.8758 91.7903C44.3691 95.529 45.0181 99.1897 45.849 102.695ZM66.0999 74.9924C66.0999 72.4221 66.1259 69.7998 66.1519 67.2295C63.3479 67.2555 60.5439 67.3074 57.7918 67.3853C57.7399 69.9037 57.714 72.474 57.714 74.9924C57.714 77.5108 57.7399 80.0811 57.7918 82.5995C60.5439 82.6774 63.3479 82.7293 66.1519 82.7553C66.1259 80.185 66.0999 77.5627 66.0999 74.9924ZM105.174 59.1804C101.202 58.791 97.0736 58.4535 92.8936 58.2458C93.0234 60.92 93.1272 63.646 93.2051 66.3981C97.5409 66.502 101.799 66.6577 105.901 66.8654C105.719 64.2432 105.486 61.6729 105.174 59.1804ZM68.1251 25.0141C67.8395 28.1296 67.5798 31.4269 67.3462 34.9059C64.9576 35.0877 62.569 35.3473 60.2324 35.6848C60.6737 32.4135 61.193 29.246 61.7642 26.3122C63.8412 25.741 65.9961 25.2997 68.1251 25.0141ZM115.248 105.394C116.961 103.136 118.467 100.721 119.765 98.2287C117.299 99.423 114.624 100.513 111.82 101.474C111.197 103.655 110.496 105.81 109.743 107.887C111.639 107.134 113.482 106.277 115.248 105.394ZM40.215 42.0978C39.4621 44.1748 38.7611 46.3297 38.138 48.5106C35.334 49.4972 32.6598 50.5877 30.1934 51.7819C31.4915 49.2635 32.9973 46.875 34.7109 44.6162C36.4504 43.7075 38.2938 42.8767 40.215 42.0978Z" fill="#A5AADC"/>
<path fill-rule="evenodd" clip-rule="evenodd" d="M105.381 115.264C106.264 113.525 107.12 111.656 107.899 109.76C105.822 110.539 103.667 111.24 101.487 111.837C100.5 114.641 99.4095 117.315 98.2412 119.782C100.708 118.484 103.122 116.978 105.381 115.264ZM58.1805 106.125C54.4419 105.632 50.8071 104.957 47.3021 104.126C47.8993 106.489 48.5743 108.774 49.3272 110.98C52.4427 111.837 55.6881 112.538 59.0113 113.057C58.6998 110.825 58.4142 108.488 58.1805 106.125ZM92.8668 91.7681C92.9966 89.0939 93.1005 86.3678 93.1784 83.6158C97.5401 83.5119 101.798 83.3562 105.874 83.1485C105.718 85.7447 105.459 88.3151 105.147 90.8075C101.175 91.2229 97.0728 91.5604 92.8668 91.7681ZM92.1658 82.6027C92.2178 80.0843 92.2437 77.514 92.2437 74.9956C92.2437 72.4772 92.2178 69.9069 92.1658 67.3885C89.4138 67.3106 86.6098 67.2587 83.8058 67.2327C83.8318 69.829 83.8577 72.4253 83.8577 74.9956C83.8577 77.5659 83.8318 80.1622 83.8058 82.7585C86.6098 82.7325 89.4138 82.6806 92.1658 82.6027ZM25 81.8759C28.1155 82.1615 31.4388 82.4211 34.8918 82.6548C35.0736 85.0174 35.3332 87.406 35.6707 89.7686C32.3994 89.3273 29.2319 88.808 26.2981 88.2368C25.727 86.1338 25.2856 84.0049 25 81.8759ZM58.1805 92.91C60.8547 93.0398 63.6067 93.1436 66.3328 93.2215C66.4626 97.5573 66.6184 101.815 66.7742 105.917C64.2039 105.762 61.6336 105.502 59.1152 105.19C58.7257 101.218 58.4142 97.09 58.1805 92.91ZM123.685 61.7812C120.725 61.2101 117.584 60.6908 114.312 60.2494C114.65 62.5861 114.909 64.9747 115.091 67.3632C118.544 67.5969 121.867 67.8565 124.983 68.1421C124.671 65.9872 124.23 63.8583 123.685 61.7812ZM90.9716 36.9606C94.2948 37.4798 97.5402 38.1808 100.656 39.0376C101.383 41.2185 102.058 43.5032 102.655 45.8918C99.1499 45.061 95.5151 44.3859 91.7764 43.8926C91.5428 41.53 91.2572 39.1934 90.9716 36.9606ZM43.849 58.1985C44.3423 54.4599 45.0174 50.7991 45.8482 47.3201C43.4856 47.9173 41.2008 48.5923 39.0199 49.3452C38.1632 52.4607 37.4622 55.7061 36.9429 59.0293C39.1757 58.7178 41.5124 58.4322 43.849 58.1985ZM66.8002 44.0998C66.5925 48.176 66.4367 52.4599 66.3328 56.7957C63.6067 56.8476 60.8547 56.9774 58.2065 57.1072C58.4142 52.9272 58.7517 48.7991 59.1411 44.8268C61.6336 44.5152 64.2039 44.2556 66.8002 44.0998ZM51.7417 30.2098C50.5474 32.6763 49.457 35.3505 48.4964 38.1545C46.3155 38.7776 44.1606 39.4786 42.0576 40.2315C42.8365 38.3362 43.6932 36.4669 44.576 34.7274C46.8347 33.0398 49.2493 31.508 51.7417 30.2098Z" fill="#82CD27"/>
</svg>
