<svg width="150" height="150" viewBox="0 0 150 150" fill="none" xmlns="http://www.w3.org/2000/svg">
<path d="M83.0678 58.6983C84.0978 59.159 85.0916 59.6969 86.0409 60.3074C90.0218 62.8348 90.2402 63.3655 90.2402 63.3655L91.5924 64.8988H91.5672L91.8443 65.0757C91.8443 65.0757 92.8774 67.342 94.3639 70.7539V28.9089H60.6772V46.1794H83.0678V58.6983Z" fill="#5C8CB3"/>
<path d="M41.6209 123.374V47.8054H81.4469V58.0413C80.6305 57.7439 79.7865 57.5294 78.9274 57.401L88.1658 63.2982L83.5886 64.1407L91.5672 64.8989H91.6344L90.2822 63.3656C90.2822 63.3656 90.0303 62.8602 86.083 60.3075C85.1201 59.6951 84.1122 59.1572 83.0679 58.6984V46.1794H58.3929V26.6259H96.6064V75.0421L96.1277 73.9806C94.1792 69.642 88.8377 67.3505 88.8377 67.3505L96.7743 76.7776C97.2615 78.0413 97.7486 79.3639 98.2189 80.7119V25H56.7971V46.1794H40V125H68.2864C67.7237 124.52 67.1358 123.981 66.5143 123.374H41.6209Z" fill="#0F4472"/>
<path d="M97.1104 84.5703C96.7005 81.6191 95.673 78.7883 94.0953 76.2636C91.3826 71.7312 77.8357 68.6815 77.8357 68.6815C77.8357 68.6815 77.1386 68.5214 76.0804 68.3445L69.6639 70.7455C69.7828 71.0102 69.8429 71.2976 69.8402 71.588C69.7991 72.2234 69.5114 72.8174 69.0389 73.2426C68.5663 73.6678 67.9465 73.8904 67.3123 73.8626C66.8026 73.8839 66.2985 73.7496 65.8666 73.4773C65.4347 73.205 65.0954 72.8076 64.8935 72.3377C64.4904 72.3377 63.5161 72.3883 61.7608 72.3883C60.6151 72.3841 59.4776 72.5838 58.4014 72.978C58.2122 73.049 58.0272 73.1306 57.8471 73.2223C57.838 73.0483 57.838 72.874 57.8471 72.7C56.2986 71.8378 54.8239 70.8488 53.4378 69.743L53.1019 70.021C51.6825 71.2341 46.1479 76.0951 45.602 78.6393C44.9721 81.5627 47.0213 86.1204 47.0213 86.1204C47.0213 86.1204 46.5762 82.5736 49.1294 82.0008L49.5073 81.9081H49.1798C49.1798 81.9081 55.3107 78.117 57.7883 77.224C60.1952 76.3212 62.7231 75.7845 65.2882 75.6318C66.6692 75.5451 68.0514 75.7786 69.3279 76.3142H69.4455C70.5656 76.3553 71.687 76.3356 72.8049 76.2552C79.5826 75.8003 88.9134 80.181 90.4419 81.6975C91.9705 83.2139 93.457 88.0412 93.457 88.0412C93.457 88.0412 93.7594 83.9637 93.457 83.2055C93.1547 82.4473 97.1104 84.5703 97.1104 84.5703Z" fill="url(#paint0_linear)"/>
<path d="M65.2794 75.6656C62.7155 75.8102 60.1876 76.3384 57.7794 77.2326C55.2599 78.1256 49.1709 81.9166 49.1709 81.9166H49.4984C51.7043 81.6985 53.8742 81.2031 55.9569 80.4423C56.2593 80.316 56.6708 80.1643 57.1327 79.9958C57.6067 80.2863 57.9926 80.7012 58.2486 81.1956C58.5047 81.69 58.6213 82.2452 58.5857 82.8012C58.4998 84.0948 58.2831 85.3763 57.939 86.626C57.1579 87.1146 52.5051 90.3328 51.7661 98.631C50.9262 107.789 61.9115 119.499 61.9115 119.499C60.7836 117.966 59.9127 116.258 59.3332 114.444C57.8718 110.274 56.6204 103.433 58.2749 93.4583C58.4009 92.717 56.4777 96.1037 55.663 97.519C54.9407 98.7743 54.3108 100.324 54.2184 98.9006C54.3231 97.138 54.697 95.402 55.3271 93.7532C56.1249 91.3016 57.1495 88.749 57.687 87.4516L57.939 86.8535C58.4261 86.2385 60.4586 83.6605 60.6937 82.2115C60.7945 81.6218 61.7016 85.5813 61.7016 85.5813C62.4174 84.407 62.8302 83.0722 62.9026 81.6976C62.9697 80.2486 62.7346 80.0127 62.7346 80.0127C64.3391 80.1358 65.9075 80.5527 67.3622 81.2427C67.5302 81.3185 67.7821 81.2427 67.7317 81.2427C67.1438 80.5603 65.019 78.6647 64.1036 77.8728C66.7575 77.0809 69.0335 76.4575 69.2435 76.4575C67.9989 75.8958 66.6435 75.6251 65.2794 75.6656V75.6656Z" fill="#0F4472"/>
<path d="M56.1672 63.416C54.7479 65.3284 54.2607 69.3132 54.2607 69.3132C55.7462 67.2324 57.4342 65.305 59.2999 63.5592C62.6089 60.5853 70.218 56.3899 70.218 56.3899C70.218 56.3899 59.871 58.4455 56.1672 63.416Z" fill="#0F4472"/>
<path d="M95.4307 84.6882L100.713 88.9005L110.095 96.3562C107.594 92.8851 104.494 89.8919 100.94 87.5188L100.218 87.0723C95.6238 84.2332 95.4307 84.6882 95.4307 84.6882Z" fill="#0F4472"/>
<path d="M90.3325 87.9991L91.5587 83.5762L83.4708 94.3934L80.0358 89.2291L68.2778 103.248C68.2778 103.248 79.0616 95.6655 79.8007 92.9191C80.5397 90.1726 81.9927 98.294 81.9927 98.294C81.9927 98.294 89.1063 92.3967 90.3325 87.9991Z" fill="#0F4472"/>
<path d="M58.3757 72.9697C59.4519 72.5755 60.5893 72.3758 61.7351 72.38C63.4904 72.38 64.4646 72.38 64.8678 72.3294C65.0699 72.8051 65.4125 73.2071 65.8496 73.4813C66.2866 73.7555 66.7969 73.8886 67.3117 73.8627C67.9516 73.902 68.581 73.6857 69.0625 73.2612C69.544 72.8366 69.8385 72.2381 69.8817 71.5965C69.8844 71.3062 69.8242 71.0187 69.7053 70.754L76.1134 68.3699L76.4242 68.2519C76.4242 68.2519 69.8229 67.5611 68.5295 67.9065C65.3163 68.3048 62.1751 69.1556 59.1987 70.4339C58.808 70.6632 58.4804 70.9867 58.2458 71.3751C58.0112 71.7635 57.8768 72.2044 57.8549 72.658C57.8459 72.832 57.8459 73.0063 57.8549 73.1803C58.0248 73.1011 58.1986 73.0308 58.3757 72.9697V72.9697ZM69.1174 72.6833C68.8998 72.9518 68.6241 73.1672 68.3113 73.3131C67.9985 73.4591 67.6567 73.5318 67.3117 73.5257C66.7677 73.5581 66.2329 73.3735 65.8239 73.0121C65.4149 72.6508 65.1648 72.142 65.1281 71.5965C65.1281 71.4368 65.1507 71.278 65.1953 71.1247C65.5318 70.9657 65.8835 70.8415 66.2451 70.754C66.1173 70.9216 66.044 71.1245 66.0352 71.3353C66.0355 71.5081 66.0782 71.6782 66.1595 71.8305C66.2408 71.9828 66.3582 72.1128 66.5014 72.2088C66.6446 72.3048 66.8091 72.3641 66.9805 72.3813C67.1519 72.3985 67.3249 72.3731 67.4842 72.3074C67.6435 72.2416 67.7843 72.1376 67.8941 72.0045C68.0038 71.8713 68.0792 71.7131 68.1136 71.5438C68.148 71.3745 68.1404 71.1993 68.0914 71.0336C68.0423 70.868 67.9534 70.717 67.8324 70.594C68.2878 70.6032 68.7409 70.6597 69.1846 70.7625H69.277C69.4192 71.0201 69.4916 71.3105 69.487 71.6049C69.4858 71.9954 69.3559 72.3746 69.1174 72.6833V72.6833Z" fill="#0F4472"/>
<defs>
<linearGradient id="paint0_linear" x1="45.476" y1="78.2097" x2="97.144" y2="78.2097" gradientUnits="userSpaceOnUse">
<stop offset="0.4" stop-color="#5C8CB3"/>
<stop offset="0.46" stop-color="#5C8CB3" stop-opacity="0.96"/>
<stop offset="0.56" stop-color="#5C8CB3" stop-opacity="0.85"/>
<stop offset="0.68" stop-color="#5C8CB3" stop-opacity="0.66"/>
<stop offset="0.82" stop-color="#5C8CB3" stop-opacity="0.41"/>
<stop offset="0.96" stop-color="#5C8CB3" stop-opacity="0.08"/>
<stop offset="1" stop-color="#5C8CB3" stop-opacity="0"/>
</linearGradient>
</defs>
</svg>
