<svg width="512" height="1080" viewBox="0 0 512 1080" fill="none" xmlns="http://www.w3.org/2000/svg">
<g clip-path="url(#clip0_341_4915)">
<rect width="512" height="1080" fill="white"/>
<rect x="36.9999" y="1082.96" width="1115.96" height="493.632" transform="rotate(-90 36.9999 1082.96)" fill="url(#paint0_linear_341_4915)"/>
<g filter="url(#filter0_d_341_4915)">
<rect x="293.276" y="76.9479" width="170.393" height="108.533" rx="5.51545" fill="white"/>
</g>
<path fill-rule="evenodd" clip-rule="evenodd" d="M393.514 130.412C392.188 129.359 390.366 129.008 390.366 129.008C390.366 129.008 392.024 127.955 392.685 127.078C393.348 126.025 393.681 124.62 393.681 123.743C393.681 123.041 393.845 119.706 391.359 117.776C389.538 116.371 387.381 115.669 384.398 115.494V109H380.586V115.494H377.602V109H373.624V115.494H366V119.706H368.32C368.983 119.706 369.978 119.706 370.477 120.233C370.972 120.935 370.972 121.11 370.972 122.163V139.011C370.972 139.363 370.972 139.888 370.641 140.241C370.309 140.592 369.978 140.592 369.149 140.592H366.829L366 145.506H373.624V152H377.602V145.506H380.586V152H384.565V145.331C385.558 145.331 386.552 145.153 387.051 145.153C388.21 144.98 390.698 144.629 393.017 143.049C395.339 141.294 395.834 138.661 396 136.029C395.834 133.22 394.842 131.465 393.514 130.412ZM377.602 120.057C377.602 120.057 378.764 119.882 380.088 119.882C381.25 119.882 382.409 119.882 384.066 120.408C385.724 120.935 386.552 122.163 386.718 123.743C386.718 125.147 386.055 126.2 385.061 126.902C383.901 127.604 382.409 127.955 381.083 127.955H377.768V120.057H377.602ZM386.223 139.539C385.394 140.065 383.569 140.592 381.746 140.592C380.088 140.766 377.436 140.592 377.436 140.592V131.816C377.436 131.816 379.923 131.641 381.912 131.816C383.901 131.99 385.394 132.518 386.223 132.868C386.884 133.22 388.21 134.098 388.21 136.029C388.21 138.31 387.215 139.011 386.223 139.539Z" fill="#F1AE32"/>
<g filter="url(#filter1_d_341_4915)">
<rect x="547.179" y="444.644" width="170.393" height="108.533" rx="5.51545" fill="white"/>
</g>
<g filter="url(#filter2_d_341_4915)">
<rect x="380.796" y="199.207" width="170.393" height="108.533" rx="5.51545" fill="white"/>
</g>
<path d="M488.132 240.205C486.535 240.948 484.839 241.443 483.092 241.592C484.44 240.898 486.386 238.571 486.884 236.739C485.587 237.532 482.693 238.72 481.246 238.72C477.754 235.155 472.016 235.056 468.423 238.472C466.677 240.156 465.679 242.433 465.629 244.859C465.629 245.553 465.729 246.196 465.879 246.84C459.093 246.642 451.658 243.325 447.218 237.581C444.473 242.285 446.868 247.484 449.962 249.365C448.914 249.464 446.918 249.266 446.02 248.375C445.97 251.494 447.467 255.604 453.006 257.089C451.958 257.634 450.062 257.485 449.214 257.386C449.513 260.01 453.255 263.427 457.297 263.427C455.85 265.06 450.361 268.081 444.224 267.14C448.515 269.715 453.405 271.101 458.394 271.101C473.014 271.101 484.34 259.416 483.741 245.057V245.008C483.741 244.958 483.741 244.958 483.741 244.909C483.741 244.859 483.741 244.81 483.741 244.76C485.487 243.572 486.984 242.037 488.132 240.205Z" fill="#60D3F7"/>
<g filter="url(#filter3_d_341_4915)">
<rect x="117.266" y="322.385" width="170.393" height="108.533" rx="5.51545" fill="white"/>
</g>
<path fill-rule="evenodd" clip-rule="evenodd" d="M191.724 356.402V376.188C191.724 387.071 191.735 395.985 191.75 396.001C191.766 396.016 192.438 395.949 193.252 395.86C194.065 395.772 195.185 395.657 195.743 395.61C196.598 395.537 199.163 395.376 199.455 395.371C199.543 395.371 199.548 394.928 199.559 386.988L199.574 378.625L199.569 378.611V378.621L191.724 356.402Z" fill="#B1060F"/>
<path fill-rule="evenodd" clip-rule="evenodd" d="M191.724 356.402L199.565 383.142L199.574 378.625L199.569 378.611V378.621L191.724 356.402Z" fill="#9D030F"/>
<path fill-rule="evenodd" clip-rule="evenodd" d="M205.772 356.429L205.757 365.181L205.741 373.928L213.518 395.996C213.513 396.001 213.493 396.003 213.46 396.003C213.498 396.003 213.522 396.001 213.528 395.996C213.555 395.975 213.56 387.067 213.555 376.194L213.539 356.429H205.772Z" fill="#B1060F"/>
<path fill-rule="evenodd" clip-rule="evenodd" d="M205.741 373.929L213.186 395.054L205.749 369.505L205.741 373.929Z" fill="#9D030F"/>
<path fill-rule="evenodd" clip-rule="evenodd" d="M191.724 356.402L199.569 378.622V378.611L200.189 380.362C203.635 390.109 205.485 395.34 205.496 395.35C205.501 395.355 206.022 395.387 206.653 395.418C208.561 395.511 210.927 395.715 212.726 395.939C213.137 395.991 213.497 396.017 213.518 395.996L205.741 373.928V373.933L205.021 371.901C204.318 369.916 203.849 368.588 201.018 360.596C200.257 358.445 199.611 356.626 199.585 356.543L199.533 356.397H195.628L191.724 356.402Z" fill="#E50914"/>
<rect x="290.711" y="690.082" width="170.393" height="108.533" rx="5.51545" fill="white"/>
<path fill-rule="evenodd" clip-rule="evenodd" d="M355.057 725.932H370.473L355.057 763.683V725.932ZM380.975 725.932H396.583V763.198L380.975 725.932ZM375.901 740.367L384.412 763.005H379.144L375.515 755.836H369.734L375.901 740.367Z" fill="#FA0F00"/>
<rect x="409.001" y="567.823" width="170.393" height="108.533" rx="5.51545" fill="white"/>
<mask id="mask0_341_4915" style="mask-type:alpha" maskUnits="userSpaceOnUse" x="469" y="599" width="23" height="19">
<path d="M469.671 600.048L477.826 613.949C479.543 616.963 481.659 617.512 483.507 617.512L491.698 617.512L480.661 603.367C478.185 600.392 475.915 599.996 473.057 599.996C472.019 599.996 470.902 600.048 469.671 600.048Z" fill="white"/>
</mask>
<g mask="url(#mask0_341_4915)">
<path fill-rule="evenodd" clip-rule="evenodd" d="M469.671 600.048L477.826 613.949C479.543 616.963 481.659 617.512 483.507 617.512L491.698 617.512L480.661 603.367C478.185 600.392 475.915 599.996 473.057 599.996C472.019 599.996 470.902 600.048 469.671 600.048Z" fill="url(#paint1_linear_341_4915)"/>
</g>
<mask id="mask1_341_4915" style="mask-type:alpha" maskUnits="userSpaceOnUse" x="486" y="621" width="27" height="23">
<path d="M488.008 624.022L486.491 628.887L491.734 638.138C493.32 640.949 495.737 643.552 499.965 643.552H512.184L494.746 621.624L488.008 624.022Z" fill="white"/>
</mask>
<g mask="url(#mask1_341_4915)">
<path fill-rule="evenodd" clip-rule="evenodd" d="M488.008 624.022L486.491 628.887L491.734 638.138C493.32 640.949 495.737 643.552 499.965 643.552H512.184L494.746 621.624L488.008 624.022Z" fill="url(#paint2_linear_341_4915)"/>
</g>
<mask id="mask2_341_4915" style="mask-type:alpha" maskUnits="userSpaceOnUse" x="486" y="621" width="12" height="11">
<path d="M487.795 631.24L486.016 628.041L489.379 622.4L494.532 621.236L497.655 625.21C494.55 624.731 488.587 627.677 487.795 631.24Z" fill="white"/>
</mask>
<g mask="url(#mask2_341_4915)">
<path fill-rule="evenodd" clip-rule="evenodd" d="M487.795 631.24C488.587 627.677 494.55 624.731 497.655 625.21L494.532 621.236L489.379 622.4L486.016 628.041L487.795 631.24Z" fill="url(#paint3_linear_341_4915)"/>
</g>
<mask id="mask3_341_4915" style="mask-type:alpha" maskUnits="userSpaceOnUse" x="483" y="618" width="19" height="14">
<path d="M487.819 618.746C483.526 619.226 482.469 621.83 483.64 624.023L487.668 631.081C487.225 623.27 495.878 621.437 501.691 622.057C500.31 619.088 496.646 618.381 493.074 618.381C491.178 618.381 489.308 618.58 487.819 618.746Z" fill="white"/>
</mask>
<g mask="url(#mask3_341_4915)">
<path fill-rule="evenodd" clip-rule="evenodd" d="M487.819 618.746C483.526 619.226 482.469 621.83 483.64 624.023L487.668 631.081C487.225 623.27 495.878 621.437 501.691 622.057C500.31 619.088 496.646 618.381 493.074 618.381C491.178 618.381 489.308 618.58 487.819 618.746Z" fill="url(#paint4_linear_341_4915)"/>
</g>
<rect x="360.573" y="444.644" width="170.393" height="108.533" rx="5.51545" fill="white"/>
<path d="M444.892 498.629H427.677V481.415H444.892V498.629Z" fill="#F1511B"/>
<path d="M463.541 498.628H446.326V481.414H463.539V498.628H463.541Z" fill="#80CC28"/>
<path d="M444.892 517.276H427.678V500.062H444.892V517.276Z" fill="#00ADEF"/>
<path d="M463.541 517.276H446.326V500.062H463.539V517.276H463.541Z" fill="#FBBC09"/>
<rect x="487.72" y="322.385" width="170.393" height="108.533" rx="5.51545" fill="white"/>
<rect x="478.527" y="691.001" width="170.393" height="108.533" rx="5.51545" fill="white"/>
<rect x="194.19" y="199.638" width="170.393" height="108.533" rx="5.51545" fill="white"/>
<path fill-rule="evenodd" clip-rule="evenodd" d="M300.211 255.746C300.208 255.682 300.206 255.617 300.204 255.551L300.202 255.196C298.801 255.748 297.676 255.177 296.531 254.595C295.685 254.165 294.827 253.73 293.839 253.737C293.604 253.465 293.505 253.146 293.405 252.824V252.824V252.823L293.405 252.823V252.823C293.378 252.735 293.35 252.646 293.32 252.558C294.508 252.175 295.512 252.74 296.495 253.293C297.683 253.962 298.84 254.612 300.25 253.546C300.048 250.355 299.369 247.358 297.894 244.687C296.352 241.639 293.511 238.635 290.54 236.813C287.482 234.648 283.37 233.58 279.301 233.614C275.929 233.642 272.585 234.426 269.894 235.964C263.249 239.342 259.244 246.208 258.724 253.31L258.912 253.687C260.315 254.438 261.44 253.84 262.589 253.231C263.486 252.754 264.397 252.271 265.465 252.416C265.813 252.575 265.675 252.804 265.532 253.041C265.45 253.179 265.365 253.32 265.371 253.452C265.245 253.765 264.909 253.773 264.574 253.78C264.406 253.784 264.238 253.787 264.096 253.83C263.725 253.991 263.351 254.185 262.973 254.382C261.655 255.069 260.284 255.783 258.77 255.196C258.77 255.196 258.784 255.341 258.799 255.551H258.796C258.837 256.086 258.912 257.036 258.912 257.036C260.09 257.409 261.043 256.918 261.994 256.428C262.808 256.01 263.619 255.592 264.568 255.715C264.564 255.753 264.56 255.791 264.556 255.829C264.513 256.25 264.468 256.685 264.238 256.987C263.354 257.032 262.624 257.447 261.895 257.861C261.069 258.33 260.244 258.799 259.193 258.734L259.57 260.241C260.426 260.328 261.13 259.931 261.833 259.534C262.537 259.138 263.24 258.741 264.096 258.827L264.051 259.957C263.31 260.026 262.697 260.403 262.085 260.78C261.452 261.169 260.82 261.559 260.045 261.607C260.166 263.685 261.073 263.097 262.109 262.425C262.812 261.969 263.574 261.475 264.19 261.749C264.209 261.863 264.243 261.977 264.277 262.09C264.354 262.349 264.431 262.607 264.332 262.882C263.59 262.872 263.016 263.259 262.441 263.647C262.066 263.9 261.69 264.154 261.269 264.296C261.306 264.383 261.341 264.477 261.376 264.573C261.521 264.965 261.679 265.395 262.069 265.52C262.373 265.394 262.658 265.221 262.942 265.049H262.943C263.512 264.704 264.081 264.359 264.803 264.389C264.678 263.981 264.568 263.43 264.616 263.069C265.655 263.344 266.359 262.79 267.059 262.241C267.279 262.068 267.498 261.895 267.727 261.749C267.878 260.42 268.562 259.307 269.246 258.196C269.557 257.69 269.869 257.184 270.129 256.658C270.218 256.287 270.248 255.918 270.242 255.551C270.227 254.836 270.067 254.13 269.907 253.422C269.609 252.106 269.309 250.785 269.942 249.397C270.241 248.564 270.76 247.467 271.64 247.231C270.022 249.164 270.321 252.117 271.169 254.301C271.34 254.745 271.402 255.158 271.385 255.551C271.341 256.603 270.726 257.503 270.114 258.398C269.723 258.97 269.333 259.54 269.093 260.148C268.325 261.704 269.029 263.481 269.894 264.768C269.673 264.939 269.455 265.118 269.236 265.298C268.229 266.125 267.218 266.957 265.888 266.982C265.585 266.835 265.476 266.507 265.368 266.18C265.314 266.016 265.259 265.852 265.181 265.711C264.381 265.552 263.713 265.988 263.066 266.41H263.066H263.066H263.066H263.066C262.938 266.493 262.812 266.576 262.685 266.653L263.58 267.783C263.718 267.717 263.861 267.635 264.007 267.552L264.007 267.552H264.007H264.007C264.557 267.237 265.154 266.895 265.749 267.267C266.405 268.043 265.914 268.134 265.341 268.239C264.939 268.313 264.496 268.395 264.38 268.726C264.66 269.105 264.993 269.397 265.341 269.702C265.382 269.738 265.423 269.775 265.465 269.811C265.616 269.764 265.757 269.693 265.899 269.621C266.182 269.478 266.465 269.333 266.833 269.385C266.864 269.422 266.895 269.459 266.926 269.497H266.926C267.12 269.727 267.317 269.963 267.398 270.234L266.549 270.754C267.162 271.382 267.933 271.98 268.67 272.265C268.908 271.466 269.361 270.765 269.814 270.063C270.2 269.466 270.586 268.868 270.839 268.21C270.885 267.982 270.917 267.734 270.948 267.488C270.993 267.141 271.038 266.796 271.12 266.512C272.052 267.961 271.287 269.064 270.497 270.202C269.943 271.001 269.377 271.816 269.377 272.782C269.71 273.083 270.114 273.254 270.508 273.42L270.555 273.44C270.515 272.264 271.131 271.358 271.749 270.45C272.096 269.94 272.444 269.429 272.676 268.869C273.475 267.196 272.483 265.949 271.491 264.704C271.02 264.112 270.55 263.52 270.271 262.883C269.454 261.09 270.602 259.407 271.733 258.073C272.521 257.222 272.726 256.389 272.656 255.552C272.597 254.832 272.335 254.111 272.068 253.378V253.378C271.633 252.179 271.185 250.948 271.591 249.634C271.969 248.314 272.533 246.741 273.899 246.192C272.909 247.339 272.39 248.675 272.298 250.199C272.144 251.358 272.596 252.32 273.041 253.265C273.39 254.008 273.735 254.741 273.776 255.552C273.794 255.919 273.75 256.302 273.618 256.707C273.343 257.303 272.943 257.846 272.543 258.389C271.826 259.363 271.11 260.336 271.12 261.608C271.02 262.882 271.783 263.77 272.546 264.658C273.343 265.586 274.14 266.514 273.947 267.881C273.933 268.928 273.384 269.764 272.838 270.596C272.171 271.613 271.508 272.624 271.827 274.005L273.289 274.48C272.819 272.885 273.549 271.688 274.278 270.494C274.841 269.572 275.403 268.65 275.41 267.548C275.493 266.294 274.738 265.392 273.982 264.489C273.449 263.853 272.916 263.217 272.676 262.457C272.128 260.823 273.143 259.48 274.094 258.222V258.222H274.094C274.204 258.077 274.313 257.932 274.419 257.788C274.921 257.007 275.039 256.271 274.958 255.551C274.868 254.766 274.538 254.002 274.203 253.227C273.778 252.244 273.345 251.242 273.383 250.153C273.351 248.362 274.135 246.602 275.691 245.769C275.597 245.904 275.501 246.038 275.404 246.171H275.404V246.171L275.404 246.171L275.404 246.171V246.171L275.404 246.171C275.018 246.706 274.633 247.239 274.419 247.842C273.669 249.873 274.464 251.681 275.235 253.437V253.437C275.467 253.964 275.696 254.486 275.881 255.009C275.943 255.196 275.986 255.376 276.011 255.551C276.186 256.771 275.533 257.734 274.875 258.703C274.402 259.4 273.928 260.1 273.757 260.901C273.424 262.308 274.209 263.255 275.002 264.212C275.518 264.836 276.039 265.465 276.256 266.228C276.86 267.846 276.151 269.118 275.438 270.4C274.759 271.618 274.076 272.843 274.512 274.383C274.502 275.033 275.031 275.051 275.549 275.068H275.549C275.77 275.075 275.988 275.082 276.162 275.139C275.166 273.3 276.004 271.688 276.827 270.105C277.172 269.442 277.514 268.784 277.718 268.116C278.251 266.443 277.313 265.273 276.366 264.092C275.943 263.564 275.519 263.035 275.223 262.457C274.572 261.098 275.297 260.073 276.028 259.039C276.43 258.471 276.833 257.902 277.011 257.273C277.286 256.485 277.842 256.683 278.392 256.878C278.687 256.982 278.981 257.086 279.229 257.037C279.63 257.11 280.009 256.987 280.374 256.869C280.879 256.705 281.355 256.55 281.821 256.943C281.995 257.655 282.457 258.246 282.919 258.836C283.496 259.574 284.072 260.31 284.08 261.279C284.053 262.449 283.304 263.378 282.565 264.294C281.597 265.494 280.645 266.674 281.349 268.349C281.514 268.682 281.698 269.022 281.885 269.369C282.857 271.17 283.925 273.148 282.951 275.139L284.41 274.809C285.148 272.964 284.292 271.443 283.458 269.96C283.19 269.485 282.925 269.013 282.715 268.536C282.091 266.752 283.204 265.324 284.278 263.946C284.555 263.59 284.83 263.238 285.072 262.883C285.987 261.17 284.95 259.709 283.984 258.347V258.347H283.984V258.347L283.984 258.347V258.347L283.984 258.347C283.771 258.047 283.562 257.752 283.377 257.46C283.025 256.794 282.953 256.162 283.038 255.552C283.148 254.765 283.518 254.013 283.881 253.273V253.273C284.116 252.795 284.349 252.322 284.507 251.848C285.371 249.791 284.884 247.231 283.28 245.676L283.329 245.627C284.13 246.099 284.853 246.932 285.214 247.748C286.167 249.665 285.515 251.43 284.863 253.195C284.574 253.976 284.285 254.757 284.136 255.551L284.084 255.858C284.054 257.042 284.673 257.822 285.308 258.623C285.652 259.056 286 259.495 286.253 260.007C287.209 261.871 286.073 263.302 284.965 264.698C284.673 265.067 284.382 265.434 284.132 265.804C283.096 267.582 283.942 268.966 284.805 270.378C285.553 271.601 286.313 272.844 285.876 274.383L287.29 273.912C287.579 272.487 286.777 271.277 286.002 270.109C285.811 269.82 285.621 269.533 285.449 269.247C284.485 267.289 285.697 265.693 286.844 264.181C287.116 263.824 287.384 263.471 287.618 263.119C288.513 261.226 287.386 259.578 286.355 258.07C286.137 257.751 285.923 257.438 285.733 257.13C285.386 256.623 285.276 256.089 285.307 255.551H285.31C285.36 254.655 285.797 253.748 286.181 252.95L286.181 252.949C286.238 252.832 286.293 252.716 286.346 252.604C287.164 250.403 286.597 247.734 285.168 246.098C286.127 246.492 286.831 247.562 287.147 248.503C287.984 250.235 287.445 251.968 286.923 253.643L286.923 253.643V253.643C286.739 254.232 286.558 254.814 286.44 255.386L286.437 255.551C286.426 256.775 287.095 257.682 287.769 258.595C288.256 259.256 288.746 259.92 288.983 260.71C289.419 262.252 288.538 263.42 287.691 264.541C287.468 264.838 287.247 265.131 287.053 265.427C285.354 267.194 286.312 268.691 287.303 270.24C287.934 271.226 288.579 272.234 288.561 273.346C288.658 273.305 288.763 273.269 288.869 273.232C289.207 273.116 289.559 272.995 289.739 272.684C289.618 271.745 289.095 270.97 288.571 270.194C288.21 269.659 287.849 269.125 287.618 268.535C287.613 268.425 287.605 268.31 287.597 268.193V268.193C287.553 267.58 287.505 266.909 287.903 266.463L287.996 266.556C287.891 267.96 288.594 269.028 289.298 270.098C289.752 270.787 290.207 271.478 290.446 272.261C290.524 272.214 290.601 272.168 290.679 272.121C291.314 271.743 291.955 271.361 292.473 270.801C292.255 270.581 291.925 270.409 291.628 270.281C291.509 270.026 291.728 269.779 291.939 269.541C292.013 269.456 292.086 269.373 292.144 269.291L293.461 269.762C293.544 269.685 293.629 269.612 293.712 269.539C294.025 269.267 294.327 269.005 294.5 268.632C294.028 268.302 293.51 268.063 292.944 267.97C292.926 267.609 293.13 267.327 293.367 267.076C294.07 267.049 294.639 267.334 295.203 267.616C295.283 267.656 295.362 267.696 295.442 267.735C295.787 267.421 296.168 267.014 296.292 266.56L294.594 265.71C293.855 265.241 293.713 265.716 293.562 266.218C293.475 266.506 293.386 266.802 293.18 266.934C291.77 266.878 290.721 265.991 289.666 265.099C289.533 264.987 289.401 264.875 289.267 264.765C289.342 264.384 289.535 264.051 289.729 263.717C289.902 263.419 290.075 263.12 290.165 262.786C290.695 261.015 289.736 259.577 288.8 258.172L288.8 258.172C288.516 257.746 288.234 257.322 287.996 256.894C287.739 256.443 287.644 255.997 287.647 255.551C287.651 254.916 287.851 254.282 288.052 253.642C288.247 253.021 288.445 252.394 288.467 251.754C288.852 250.106 288.103 248.52 287.465 247.169L287.428 247.089C287.869 247.357 288.342 247.716 288.609 248.171C289.488 249.899 289.74 252.306 288.938 254.16C288.741 254.656 288.675 255.118 288.7 255.551C288.762 256.598 289.362 257.494 289.969 258.401C290.621 259.374 291.281 260.36 291.295 261.559C291.504 261.717 291.709 261.898 291.916 262.079C292.636 262.715 293.371 263.364 294.358 263.07C294.413 263.33 294.354 263.6 294.296 263.864C294.252 264.06 294.21 264.253 294.217 264.436C294.919 264.397 295.477 264.71 296.036 265.025C296.376 265.216 296.717 265.408 297.092 265.521C297.155 265.411 297.231 265.302 297.307 265.192V265.191C297.516 264.89 297.729 264.581 297.706 264.246C297.24 264.108 296.828 263.835 296.416 263.563C295.844 263.184 295.27 262.805 294.549 262.786L294.782 261.701C295.541 261.683 296.183 262.048 296.829 262.416C297.293 262.68 297.758 262.945 298.271 263.07C298.675 262.769 298.822 262.229 298.957 261.731L298.978 261.656C298.224 261.538 297.576 261.16 296.928 260.782C296.28 260.405 295.632 260.027 294.879 259.909C294.888 259.785 294.883 259.654 294.878 259.523C294.867 259.258 294.857 258.991 294.972 258.779C295.798 258.779 296.461 259.163 297.126 259.548C297.612 259.828 298.098 260.11 298.649 260.242C299.534 260.662 299.592 260.045 299.648 259.446C299.671 259.195 299.695 258.947 299.779 258.779C298.741 258.821 297.917 258.34 297.094 257.86C296.332 257.416 295.571 256.973 294.643 256.942L294.407 255.761C295.401 255.597 296.242 256.027 297.082 256.458C298.008 256.931 298.934 257.405 300.062 257.084C300.244 256.608 300.228 256.198 300.211 255.747V255.746ZM281.49 242.468C280.893 241.887 280.109 241.338 279.369 240.912L277.577 242.28C277.371 242.419 277.542 242.583 277.671 242.706C277.688 242.722 277.705 242.738 277.719 242.752C278.08 242.747 278.453 242.727 278.832 242.706C279.63 242.663 280.457 242.619 281.256 242.704L281.49 242.468ZM270.6 246.805C269.126 245.841 267.297 246.565 265.835 247.143L265.835 247.143L265.834 247.143L265.834 247.143L265.834 247.143C265.675 247.206 265.52 247.267 265.371 247.324C265.229 245.894 264.649 244.591 263.437 243.648C263.406 243.632 263.371 243.612 263.334 243.59C263.234 243.532 263.118 243.464 263.011 243.457C262.924 243.452 262.84 243.487 262.776 243.599C263.223 246.352 261.847 248.428 260.48 250.489H260.48C260.17 250.956 259.861 251.423 259.573 251.896C260.091 252.32 260.924 252.256 261.552 252.132C261.937 251.978 262.317 251.798 262.699 251.616C263.955 251.021 265.23 250.416 266.736 250.718C267.317 249.728 268.293 248.769 269.093 247.983C269.283 247.819 269.501 247.678 269.716 247.538C270.055 247.318 270.388 247.102 270.6 246.805ZM275.926 249.352C275.613 249.492 275.566 249.13 275.597 248.926C275.534 248.691 275.676 248.503 275.881 248.458C276.019 248.426 276.163 248.405 276.304 248.4C276.916 248.377 277.519 248.608 277.812 249.068V249.259C277.671 249.246 277.508 249.2 277.335 249.151C276.85 249.014 276.286 248.854 275.926 249.352ZM283.279 246.902C282.841 245.927 281.835 245.533 280.923 245.297C280.475 245.242 280.011 245.205 279.551 245.201L279.529 245.2C279.45 245.2 279.371 245.199 279.292 245.201C278.005 245.227 276.774 245.557 276.022 246.618C275.994 246.696 275.94 246.783 275.885 246.873C275.728 247.127 275.555 247.408 275.88 247.605C275.932 247.602 275.984 247.599 276.036 247.595C276.986 247.532 278.034 247.462 278.66 248.268C278.66 248.473 278.696 248.696 278.732 248.92C278.828 249.521 278.926 250.125 278.331 250.389C277.979 250.063 277.594 250.148 277.202 250.234C276.839 250.313 276.47 250.394 276.116 250.152C275.77 249.948 275.551 250.187 275.409 250.485C275.205 252.433 276.225 254.583 278.047 255.667C278.785 255.933 279.778 256.187 280.549 255.809C282.402 254.945 283.17 252.967 283.515 251.144C283.509 251.094 283.504 251.038 283.498 250.978C283.464 250.617 283.416 250.118 282.999 250.104C282.46 250.445 281.679 250.254 281.099 250.112H281.099L281.066 250.104C280.902 250.157 280.812 250.299 280.721 250.444C280.621 250.603 280.519 250.765 280.313 250.815L280.075 250.624C279.87 249.761 279.744 248.535 280.546 247.938C281.442 247.577 282.495 247.419 283.422 247.702C283.537 247.503 283.457 247.332 283.376 247.161C283.336 247.076 283.296 246.991 283.279 246.902ZM282.226 248.455C282.261 248.454 282.297 248.452 282.334 248.451C282.772 248.443 283.23 248.476 283.422 248.833C283.419 248.868 283.418 248.905 283.418 248.942C283.416 249.102 283.413 249.263 283.234 249.352L283.225 249.349C282.629 249.114 281.802 248.788 281.207 249.259C280.966 248.744 281.359 248.664 281.73 248.589C281.892 248.556 282.05 248.525 282.149 248.458C282.175 248.457 282.2 248.456 282.226 248.455ZM289.174 241.808C288.399 241.766 287.708 242.046 287.017 242.325C286.671 242.465 286.325 242.605 285.969 242.705C285.913 242.161 286.137 241.6 286.361 241.041C286.511 240.665 286.661 240.29 286.724 239.922C285.302 240.014 284.123 240.735 282.953 241.451C282.702 241.604 282.451 241.757 282.199 241.904C281.868 241.105 281.536 240.301 281.208 239.499L283.093 237.707L283.141 237.471L280.595 237.329C280.405 236.998 280.266 236.637 280.126 236.277C279.943 235.802 279.76 235.33 279.465 234.928C279.253 235.329 279.075 235.741 278.898 236.153H278.898C278.721 236.566 278.544 236.978 278.332 237.378L275.788 237.52V237.707L277.719 239.451C277.7 239.52 277.682 239.59 277.664 239.66C277.446 240.496 277.218 241.373 276.683 241.998C276.492 241.883 276.301 241.767 276.11 241.651C275.171 241.079 274.227 240.503 273.196 240.112L273.144 240.095C272.849 239.999 272.457 239.871 272.205 240.064C272.269 240.204 272.337 240.347 272.406 240.49C272.759 241.231 273.132 242.012 273.054 242.802C272.765 242.749 272.511 242.622 272.258 242.496C272.057 242.395 271.856 242.296 271.641 242.234C271.522 242.201 271.399 242.163 271.273 242.123C270.781 241.969 270.251 241.802 269.801 241.953C270.743 243.272 271.513 244.653 271.779 246.24C274.907 244.73 278.555 243.9 282.341 244.545C283.794 244.776 285.151 245.303 286.466 245.813L286.466 245.813L286.467 245.813C286.758 245.926 287.048 246.038 287.335 246.146C287.384 244.842 288.04 243.739 288.671 242.68L288.671 242.68V242.679L288.671 242.679C288.845 242.387 289.017 242.097 289.174 241.808ZM296.042 251.512C295.541 251.251 295.043 250.991 294.546 250.86C293.838 250.75 293.008 250.656 292.331 250.767C291.358 249.259 290.054 247.844 288.467 246.996C288.552 246.525 289.158 246.455 289.647 246.399C289.695 246.393 289.742 246.388 289.787 246.382C291.185 246.242 292.41 246.821 293.557 247.419C293.704 247.074 293.793 246.701 293.883 246.327V246.327V246.327C293.928 246.14 293.974 245.953 294.026 245.769C294.404 244.841 295.146 243.897 296.104 243.506C296.308 243.537 296.449 243.758 296.385 243.977C295.895 246.549 297.213 248.514 298.516 250.457C298.837 250.935 299.157 251.412 299.449 251.896C298.28 252.677 297.154 252.09 296.042 251.512ZM277.766 253.075L277.811 253.359C278.017 253.496 278.176 253.665 278.327 253.827C278.626 254.148 278.899 254.44 279.464 254.398C280.218 254.443 280.783 253.737 281.159 253.171C280.674 253.104 280.138 253.118 279.588 253.133C278.983 253.149 278.359 253.166 277.766 253.075ZM278.615 251.942C278.62 251.893 278.625 251.844 278.615 251.803C278.867 251.63 279.215 251.532 279.551 251.532C279.887 251.532 280.207 251.631 280.403 251.851C280.215 252.252 279.743 252.214 279.301 252.179C279.084 252.161 278.874 252.145 278.709 252.181C278.594 252.138 278.604 252.04 278.615 251.942Z" fill="#007042"/>
<rect x="479.882" y="76.9479" width="170.393" height="108.533" rx="5.51545" fill="white"/>
<rect x="454.209" y="-47" width="170.393" height="108.533" rx="5.51545" fill="white"/>
<rect x="105.943" y="690.082" width="170.393" height="108.533" rx="5.51545" fill="white"/>
<path d="M198.479 728.739C200.083 726.556 201.317 723.418 200.947 720.417C198.479 720.553 195.641 722.19 193.914 724.373C192.433 726.284 191.076 729.422 191.446 732.423C194.037 732.696 196.752 730.923 198.479 728.739Z" fill="#42424F"/>
<path d="M205.347 750.567H172.723H205.347C204.609 748.956 204.239 746.6 204.485 744.741V744.617C204.732 742.138 206.455 739.535 207.686 738.543C207.932 738.171 208.794 737.551 209.287 737.179C207.317 734.204 203.993 732.593 200.546 732.469C197.099 732.221 193.652 734.7 191.682 734.576C189.835 734.576 187.004 732.469 184.049 732.593C183.926 732.593 183.433 732.593 183.433 732.593C179.494 732.717 176.047 734.948 174.077 738.543C173.338 739.782 172.354 742.758 172.23 744.617V744.741C171.984 745.981 172.23 749.08 172.477 750.567C172.477 750.567 172.477 750.567 172.477 750.691C172.6 752.179 173.462 755.154 173.954 756.517C174.446 758.129 176.047 761.104 177.032 762.592C179.001 765.443 181.341 768.79 184.541 768.542C187.496 768.418 188.604 766.558 192.297 766.558C195.868 766.558 196.853 768.418 200.053 768.418C203.254 768.294 205.224 765.443 207.317 762.468C208.302 760.98 209.779 758.129 210.395 756.393C210.395 756.27 210.518 755.898 210.641 755.774C208.548 755.278 206.209 752.427 205.347 750.567Z" fill="#42424F"/>
<rect x="173.967" y="444.644" width="170.393" height="108.533" rx="5.51545" fill="white"/>
<path d="M248.853 514.902H246.205V504.407H248.853V514.902Z" fill="#03B9EA"/>
<path d="M270.208 507.414C270.099 507.359 269.246 506.854 267.98 506.854C266.267 506.854 265.08 508.045 265.08 509.653C265.08 511.213 266.216 512.455 267.98 512.455C269.225 512.455 270.091 511.96 270.208 511.898V514.715C269.876 514.807 268.97 515.088 267.794 515.088C264.815 515.088 262.201 513.035 262.201 509.652C262.201 506.519 264.566 504.221 267.794 504.221C269.036 504.221 269.957 504.523 270.208 504.597V507.414ZM242.564 507.414C242.457 507.359 241.606 506.854 240.339 506.854C238.624 506.854 237.437 508.045 237.437 509.653C237.437 511.213 238.574 512.455 240.339 512.455C241.584 512.455 242.45 511.96 242.564 511.898V514.715C242.235 514.807 241.331 515.088 240.148 515.088C237.171 515.088 234.56 513.035 234.56 509.652C234.56 506.519 236.926 504.221 240.149 504.221C241.395 504.221 242.315 504.523 242.564 504.597V507.414ZM278.539 506.893C276.967 506.893 275.801 508.13 275.801 509.653C275.801 511.18 276.967 512.416 278.539 512.416C280.108 512.416 281.279 511.18 281.279 509.653C281.279 508.13 280.108 506.893 278.539 506.893ZM284.084 509.653C284.084 512.656 281.767 515.088 278.54 515.088C275.311 515.088 272.996 512.656 272.996 509.652C272.996 506.656 275.312 504.221 278.539 504.221C281.767 504.221 284.084 506.656 284.084 509.653ZM258.896 506.793C258.857 506.78 257.742 506.472 256.826 506.472C255.765 506.472 255.187 506.828 255.187 507.332C255.187 507.971 255.966 508.194 256.401 508.332L257.132 508.564C258.852 509.111 259.634 510.288 259.634 511.567C259.634 514.203 257.316 515.089 255.289 515.089C253.88 515.089 252.561 514.829 252.431 514.803V512.386C252.664 512.445 253.775 512.777 254.932 512.777C256.249 512.777 256.855 512.391 256.855 511.797C256.855 511.266 256.331 510.959 255.674 510.752C255.515 510.699 255.273 510.623 255.109 510.569C253.634 510.103 252.404 509.236 252.404 507.499C252.404 505.536 253.874 504.218 256.315 504.218C257.604 504.218 258.817 504.531 258.896 504.552V506.792V506.793Z" fill="#03B9EA"/>
<path d="M231.751 493.127C231.751 492.403 231.161 491.817 230.437 491.817C229.713 491.817 229.121 492.403 229.121 493.126V495.881C229.13 496.225 229.272 496.551 229.518 496.79C229.764 497.03 230.093 497.164 230.436 497.164C230.78 497.164 231.109 497.03 231.355 496.79C231.6 496.551 231.743 496.225 231.751 495.881V493.127ZM238.973 489.511C238.973 489.162 238.835 488.828 238.588 488.581C238.342 488.335 238.007 488.196 237.658 488.196C237.31 488.196 236.975 488.335 236.729 488.581C236.482 488.828 236.343 489.162 236.343 489.511V495.881C236.343 496.23 236.482 496.565 236.729 496.811C236.975 497.058 237.31 497.196 237.658 497.196C238.007 497.196 238.342 497.058 238.588 496.811C238.835 496.565 238.973 496.23 238.973 495.881V489.51V489.511ZM246.196 484.563C246.196 483.84 245.606 483.253 244.882 483.253C244.157 483.253 243.566 483.84 243.566 484.563V498.5C243.575 498.843 243.717 499.169 243.963 499.408C244.209 499.648 244.538 499.782 244.881 499.782C245.224 499.782 245.554 499.648 245.8 499.408C246.045 499.169 246.188 498.843 246.196 498.5V484.563ZM253.418 489.511C253.418 489.162 253.28 488.828 253.033 488.581C252.787 488.335 252.452 488.196 252.103 488.196C251.755 488.196 251.42 488.335 251.173 488.581C250.927 488.828 250.788 489.162 250.788 489.511V495.881C250.788 496.23 250.927 496.565 251.173 496.811C251.42 497.058 251.755 497.196 252.103 497.196C252.452 497.196 252.787 497.058 253.033 496.811C253.28 496.565 253.418 496.23 253.418 495.881V489.51V489.511ZM260.633 493.127C260.633 492.78 260.495 492.447 260.25 492.201C260.005 491.956 259.673 491.817 259.326 491.817C258.978 491.817 258.644 491.954 258.398 492.2C258.152 492.445 258.013 492.778 258.011 493.126V495.881C258.011 496.229 258.149 496.563 258.395 496.808C258.641 497.054 258.974 497.192 259.322 497.192C259.67 497.192 260.003 497.054 260.249 496.808C260.495 496.563 260.633 496.229 260.633 495.881V493.127ZM267.858 489.511C267.849 489.169 267.708 488.844 267.463 488.605C267.218 488.367 266.889 488.233 266.547 488.233C266.205 488.233 265.877 488.367 265.632 488.605C265.387 488.844 265.245 489.169 265.237 489.511V495.881C265.237 496.229 265.375 496.563 265.62 496.808C265.866 497.054 266.2 497.192 266.547 497.192C266.895 497.192 267.228 497.054 267.474 496.808C267.72 496.563 267.858 496.229 267.858 495.881V489.51V489.511ZM275.085 484.563C275.085 484.216 274.947 483.882 274.701 483.636C274.455 483.391 274.122 483.252 273.774 483.252C273.427 483.252 273.093 483.391 272.847 483.636C272.602 483.882 272.464 484.216 272.464 484.563V498.5C272.456 498.677 272.484 498.853 272.546 499.019C272.609 499.185 272.704 499.336 272.827 499.464C272.949 499.592 273.096 499.694 273.259 499.764C273.422 499.833 273.597 499.869 273.774 499.869C273.951 499.869 274.127 499.833 274.29 499.764C274.452 499.694 274.6 499.592 274.722 499.464C274.844 499.336 274.94 499.185 275.002 499.019C275.065 498.853 275.093 498.677 275.085 498.5V484.563ZM282.311 489.511C282.311 488.787 281.724 488.199 280.984 488.199C280.636 488.199 280.302 488.337 280.057 488.583C279.811 488.829 279.673 489.162 279.673 489.51V495.881C279.673 496.609 280.26 497.195 280.984 497.195C281.724 497.195 282.311 496.609 282.311 495.881V489.51V489.511ZM289.522 493.127C289.522 492.779 289.384 492.445 289.138 492.199C288.892 491.953 288.558 491.815 288.211 491.815C287.863 491.815 287.529 491.953 287.283 492.199C287.036 492.445 286.899 492.779 286.899 493.127V495.881C286.899 496.609 287.486 497.196 288.211 497.196C288.934 497.196 289.522 496.609 289.522 495.881V493.127H289.522Z" fill="#03B9EA"/>
<g filter="url(#filter4_d_341_4915)">
<rect x="245.668" y="813.26" width="170.393" height="108.533" rx="5.51545" fill="white"/>
</g>
<path fill-rule="evenodd" clip-rule="evenodd" d="M343.976 883.592C340.493 886.83 335.879 888.798 330.726 888.798C322.872 888.798 315.86 884.23 312.364 877.552L312.271 877.373C310.835 874.565 310.015 871.395 310.015 868.035C310.015 864.703 310.821 861.558 312.234 858.768L312.339 858.565C315.827 851.861 322.854 847.272 330.726 847.272C336.061 847.272 340.816 849.381 344.339 852.826L338.698 858.562C336.625 856.767 333.95 855.689 330.98 855.689C325.635 855.689 320.93 859.181 319.159 864.062L319.098 864.236C318.655 865.515 318.411 866.887 318.411 868.315C318.411 869.681 318.635 870.994 319.042 872.226C320.712 877.285 325.511 880.941 330.98 880.941C333.632 880.941 336.043 880.075 338.005 878.613L338.129 878.52C340.222 876.918 341.787 874.63 342.539 871.963H330.725V864.107H350.245C350.473 865.379 350.597 866.691 350.597 868.035C350.597 874.167 348.118 879.676 344.101 883.476L343.976 883.592Z" fill="#3183FF"/>
<rect x="303.872" y="322.385" width="170.393" height="108.533" rx="5.51545" fill="white"/>
<path d="M376.728 376.108C376.612 378.146 378.167 379.891 380.187 380.008C380.26 380.008 380.333 380.008 380.405 380.008C382.44 380.008 384.083 378.351 384.068 376.298C384.068 374.245 382.426 372.588 380.391 372.603C378.443 372.603 376.83 374.142 376.728 376.108Z" fill="#0033AD"/>
<path d="M363.035 375.154C362.381 375.11 361.814 375.624 361.785 376.284C361.756 376.944 362.25 377.516 362.905 377.545C363.559 377.589 364.111 377.076 364.155 376.416C364.198 375.756 363.689 375.198 363.035 375.154Z" fill="#0033AD"/>
<path d="M376.496 354.609C377.077 354.315 377.31 353.582 377.019 352.995C376.728 352.409 376.001 352.174 375.42 352.467C374.838 352.761 374.606 353.479 374.897 354.066C375.187 354.667 375.9 354.916 376.496 354.609C376.481 354.609 376.496 354.609 376.496 354.609Z" fill="#0033AD"/>
<path d="M380.217 361.164C381.118 360.709 381.481 359.595 381.031 358.686C380.58 357.776 379.476 357.41 378.574 357.864C377.673 358.319 377.31 359.433 377.76 360.343C378.211 361.252 379.316 361.619 380.217 361.164Z" fill="#0033AD"/>
<path d="M367.687 365.666C368.385 366.121 369.315 365.93 369.78 365.226C370.231 364.522 370.042 363.584 369.344 363.115C368.646 362.66 367.716 362.851 367.251 363.555C366.786 364.258 366.989 365.212 367.687 365.666Z" fill="#0033AD"/>
<path d="M369.911 374.494C368.893 374.436 368.036 375.213 367.978 376.24C367.919 377.266 368.69 378.131 369.707 378.19C370.725 378.249 371.582 377.471 371.641 376.445C371.699 375.433 370.928 374.553 369.911 374.494Z" fill="#0033AD"/>
<path d="M367.89 386.916C367.149 387.298 366.844 388.207 367.222 388.969C367.6 389.717 368.501 390.025 369.257 389.644C369.998 389.263 370.303 388.353 369.925 387.591C369.548 386.843 368.632 386.535 367.89 386.916Z" fill="#0033AD"/>
<path d="M375.013 370.667C376.016 371.327 377.353 371.048 377.993 370.036C378.647 369.025 378.371 367.675 377.368 367.03C376.365 366.37 375.027 366.649 374.388 367.661C373.734 368.658 374.01 370.007 375.013 370.667Z" fill="#0033AD"/>
<path d="M397.616 361.017C398.46 361.574 399.608 361.34 400.16 360.489C400.713 359.639 400.48 358.48 399.637 357.923C398.794 357.366 397.646 357.6 397.093 358.451C396.526 359.316 396.759 360.46 397.616 361.017Z" fill="#0033AD"/>
<path d="M401.366 354.491C401.919 354.858 402.645 354.697 403.009 354.139C403.372 353.582 403.212 352.849 402.66 352.482C402.108 352.116 401.381 352.277 401.017 352.819C400.669 353.377 400.829 354.125 401.366 354.491Z" fill="#0033AD"/>
<path d="M397.892 372.573C395.872 372.456 394.128 374.025 394.026 376.064C393.91 378.102 395.465 379.862 397.485 379.965C397.558 379.965 397.631 379.965 397.689 379.965C399.709 379.965 401.352 378.307 401.352 376.254C401.367 374.304 399.84 372.676 397.892 372.573Z" fill="#0033AD"/>
<path d="M381.423 370.404C382.048 371.65 383.313 372.442 384.708 372.442C386.729 372.442 388.371 370.785 388.371 368.732C388.371 368.16 388.241 367.588 387.979 367.06C387.063 365.227 384.854 364.494 383.051 365.418C381.234 366.356 380.508 368.585 381.423 370.404Z" fill="#0033AD"/>
<path d="M410.19 365.667C410.931 365.286 411.222 364.362 410.844 363.614C410.466 362.866 409.55 362.573 408.809 362.954C408.068 363.335 407.777 364.244 408.14 364.992C408.533 365.74 409.434 366.048 410.19 365.667Z" fill="#0033AD"/>
<path d="M400.887 366.839C399.826 367.382 399.39 368.687 399.928 369.758C400.465 370.828 401.759 371.268 402.82 370.726C403.881 370.183 404.317 368.878 403.78 367.807C403.242 366.737 401.948 366.311 400.887 366.839Z" fill="#0033AD"/>
<path d="M388.895 353.934C389.723 353.978 390.435 353.333 390.494 352.497C390.552 351.661 389.898 350.943 389.069 350.884C388.241 350.84 387.528 351.471 387.47 352.306C387.427 353.157 388.066 353.876 388.895 353.934Z" fill="#0033AD"/>
<path d="M388.88 363.51C390.072 363.584 391.089 362.66 391.148 361.457C391.22 360.255 390.304 359.228 389.113 359.17C387.921 359.096 386.903 360.02 386.845 361.223C386.787 362.425 387.688 363.452 388.88 363.51Z" fill="#0033AD"/>
<path d="M377.193 385.743C378.254 385.2 378.69 383.895 378.153 382.824C377.615 381.754 376.321 381.314 375.26 381.856C374.199 382.399 373.763 383.704 374.301 384.775C374.838 385.845 376.132 386.285 377.193 385.743Z" fill="#0033AD"/>
<path d="M390.276 366.693C389.171 368.409 389.636 370.696 391.337 371.811C393.038 372.925 395.305 372.456 396.41 370.74C397.515 369.024 397.05 366.737 395.349 365.622C394.753 365.226 394.055 365.021 393.343 365.021C392.107 365.021 390.959 365.651 390.276 366.693Z" fill="#0033AD"/>
<path d="M396.657 382.179C395.741 380.346 393.532 379.613 391.729 380.537C389.912 381.46 389.185 383.69 390.101 385.508C391.017 387.341 393.226 388.074 395.029 387.15C396.831 386.241 397.573 384.041 396.672 382.208C396.672 382.194 396.672 382.194 396.657 382.179Z" fill="#0033AD"/>
<path d="M403.067 381.916C402.065 381.256 400.727 381.534 400.088 382.546C399.433 383.558 399.71 384.907 400.713 385.553C401.716 386.213 403.053 385.934 403.693 384.922C404.347 383.925 404.07 382.576 403.067 381.916Z" fill="#0033AD"/>
<path d="M410.102 376.356C410.161 375.33 409.39 374.465 408.373 374.406C407.355 374.347 406.498 375.125 406.439 376.151C406.381 377.178 407.152 378.043 408.169 378.102C409.172 378.16 410.044 377.368 410.102 376.356Z" fill="#0033AD"/>
<path d="M415.176 375.037C414.522 374.993 413.955 375.506 413.926 376.166C413.897 376.826 414.391 377.398 415.045 377.427C415.699 377.471 416.251 376.958 416.295 376.298C416.324 375.638 415.83 375.081 415.176 375.037Z" fill="#0033AD"/>
<path d="M410.393 386.916C409.696 386.461 408.765 386.652 408.3 387.355C407.85 388.059 408.039 388.998 408.736 389.467C409.434 389.922 410.364 389.731 410.83 389.027C411.295 388.323 411.091 387.37 410.393 386.916Z" fill="#0033AD"/>
<path d="M376.699 398.091C376.147 397.724 375.42 397.885 375.057 398.428C374.693 398.985 374.853 399.718 375.391 400.085C375.943 400.452 376.67 400.29 377.033 399.748C377.411 399.205 377.251 398.457 376.699 398.091Z" fill="#0033AD"/>
<path d="M401.585 397.974C401.003 398.267 400.771 399.001 401.061 399.587C401.352 400.174 402.079 400.408 402.66 400.115C403.242 399.822 403.474 399.103 403.184 398.517C402.893 397.915 402.181 397.666 401.585 397.974C401.599 397.974 401.585 397.974 401.585 397.974Z" fill="#0033AD"/>
<path d="M387.804 385.889C388.909 384.173 388.444 381.885 386.743 380.756C385.043 379.642 382.775 380.111 381.656 381.827C380.536 383.542 381.016 385.83 382.717 386.959C383.313 387.355 384.011 387.561 384.723 387.561C385.973 387.575 387.121 386.945 387.804 385.889Z" fill="#0033AD"/>
<path d="M380.464 391.565C379.621 391.008 378.473 391.243 377.92 392.093C377.368 392.944 377.601 394.102 378.444 394.66C379.287 395.217 380.435 394.982 380.987 394.132C381.554 393.281 381.322 392.122 380.464 391.565Z" fill="#0033AD"/>
<path d="M389.026 398.648C388.198 398.604 387.485 399.249 387.427 400.085C387.369 400.921 388.023 401.639 388.852 401.698C389.68 401.742 390.393 401.111 390.451 400.275C390.494 399.425 389.855 398.706 389.026 398.648Z" fill="#0033AD"/>
<path d="M389.04 389.071C387.848 388.998 386.83 389.922 386.772 391.124C386.7 392.327 387.615 393.354 388.807 393.412C389.999 393.471 391.017 392.562 391.075 391.359C391.148 390.171 390.232 389.13 389.04 389.071Z" fill="#0033AD"/>
<path d="M397.863 391.418C396.962 391.887 396.599 393.001 397.064 393.911C397.529 394.82 398.634 395.186 399.535 394.717C400.436 394.263 400.8 393.148 400.349 392.239C399.884 391.33 398.779 390.948 397.863 391.418Z" fill="#0033AD"/>
<g filter="url(#filter5_d_341_4915)">
<rect x="221.476" y="567.823" width="170.393" height="108.533" rx="5.51545" fill="white"/>
</g>
<path d="M306.635 643.459C318.637 643.459 328.366 633.729 328.366 621.727C328.366 609.725 318.637 599.996 306.635 599.996C294.633 599.996 284.903 609.725 284.903 621.727C284.903 633.729 294.633 643.459 306.635 643.459Z" fill="url(#paint5_linear_341_4915)"/>
<path fill-rule="evenodd" clip-rule="evenodd" d="M300.3 614.121V630.42H313.882L300.3 614.121Z" fill="url(#paint6_linear_341_4915)"/>
<path fill-rule="evenodd" clip-rule="evenodd" d="M286.718 630.42H300.3V614.121L286.718 630.42Z" fill="white"/>
<path fill-rule="evenodd" clip-rule="evenodd" d="M289.249 634.766C290.488 636.407 291.955 637.874 293.596 639.113H319.673C321.314 637.874 322.781 636.407 324.02 634.766H289.249Z" fill="#FC9965"/>
<path fill-rule="evenodd" clip-rule="evenodd" d="M293.596 639.112C297.225 641.84 301.745 643.459 306.634 643.459C311.524 643.459 316.044 641.84 319.673 639.112H293.596Z" fill="#FF2D55"/>
<path fill-rule="evenodd" clip-rule="evenodd" d="M314.056 622.815V634.767H324.02L314.056 622.815Z" fill="url(#paint7_linear_341_4915)"/>
<path fill-rule="evenodd" clip-rule="evenodd" d="M314.056 630.42H286.718C287.392 631.974 288.25 633.43 289.25 634.766H314.067V630.42H314.056Z" fill="#FFBC5B"/>
<path fill-rule="evenodd" clip-rule="evenodd" d="M304.103 634.767H314.056V622.815L304.103 634.767Z" fill="white"/>
<path d="M314.056 619.554C317.056 619.554 319.489 617.122 319.489 614.121C319.489 611.121 317.056 608.688 314.056 608.688C311.055 608.688 308.623 611.121 308.623 614.121C308.623 617.122 311.055 619.554 314.056 619.554Z" fill="#FFC95B"/>
<path d="M300.3 610.862C301.8 610.862 303.016 609.646 303.016 608.145C303.016 606.645 301.8 605.429 300.3 605.429C298.8 605.429 297.584 606.645 297.584 608.145C297.584 609.646 298.8 610.862 300.3 610.862Z" fill="#FFC95B"/>
<rect x="302.661" y="935.338" width="170.393" height="108.533" rx="5.51545" fill="white"/>
<path d="M370.124 976.648L384.311 983.344V1010.9L370.124 1004.2V976.648ZM391.596 968.612L370.805 975.989L384.865 982.728L405.591 975.308L391.596 968.612ZM391.213 981.219V998.077L405.975 1003.82V975.925L391.213 981.219Z" fill="url(#paint8_linear_341_4915)"/>
<rect x="430.435" y="813.26" width="170.393" height="108.533" rx="5.51545" fill="white"/>
<path d="M526.299 851.174C530.176 851.174 533.32 867.603 533.32 887.894H538.978C538.978 866.049 533.271 848.366 526.282 848.366C522.289 848.366 518.761 853.664 516.432 861.988C514.102 853.664 510.574 848.366 506.614 848.366C499.626 848.366 493.935 866.032 493.935 887.877H499.592C499.592 867.587 502.704 851.174 506.581 851.174C510.458 851.174 513.603 866.35 513.603 885.069H519.227C519.227 866.35 522.388 851.174 526.265 851.174" fill="#FFCC00"/>
<g filter="url(#filter6_d_341_4915)">
<rect x="489.601" y="935.338" width="170.393" height="108.533" rx="5.51545" fill="white"/>
</g>
</g>
<defs>
<filter id="filter0_d_341_4915" x="256.506" y="43.8552" width="243.933" height="182.072" filterUnits="userSpaceOnUse" color-interpolation-filters="sRGB">
<feFlood flood-opacity="0" result="BackgroundImageFix"/>
<feColorMatrix in="SourceAlpha" type="matrix" values="0 0 0 0 0 0 0 0 0 0 0 0 0 0 0 0 0 0 127 0" result="hardAlpha"/>
<feOffset dy="3.67696"/>
<feGaussianBlur stdDeviation="18.3848"/>
<feComposite in2="hardAlpha" operator="out"/>
<feColorMatrix type="matrix" values="0 0 0 0 0.729412 0 0 0 0 0.729412 0 0 0 0 0.729412 0 0 0 0.4 0"/>
<feBlend mode="normal" in2="BackgroundImageFix" result="effect1_dropShadow_341_4915"/>
<feBlend mode="normal" in="SourceGraphic" in2="effect1_dropShadow_341_4915" result="shape"/>
</filter>
<filter id="filter1_d_341_4915" x="510.409" y="411.552" width="243.933" height="182.072" filterUnits="userSpaceOnUse" color-interpolation-filters="sRGB">
<feFlood flood-opacity="0" result="BackgroundImageFix"/>
<feColorMatrix in="SourceAlpha" type="matrix" values="0 0 0 0 0 0 0 0 0 0 0 0 0 0 0 0 0 0 127 0" result="hardAlpha"/>
<feOffset dy="3.67696"/>
<feGaussianBlur stdDeviation="18.3848"/>
<feComposite in2="hardAlpha" operator="out"/>
<feColorMatrix type="matrix" values="0 0 0 0 0.729412 0 0 0 0 0.729412 0 0 0 0 0.729412 0 0 0 0.4 0"/>
<feBlend mode="normal" in2="BackgroundImageFix" result="effect1_dropShadow_341_4915"/>
<feBlend mode="normal" in="SourceGraphic" in2="effect1_dropShadow_341_4915" result="shape"/>
</filter>
<filter id="filter2_d_341_4915" x="288.872" y="116.475" width="354.242" height="292.381" filterUnits="userSpaceOnUse" color-interpolation-filters="sRGB">
<feFlood flood-opacity="0" result="BackgroundImageFix"/>
<feColorMatrix in="SourceAlpha" type="matrix" values="0 0 0 0 0 0 0 0 0 0 0 0 0 0 0 0 0 0 127 0" result="hardAlpha"/>
<feOffset dy="9.19241"/>
<feGaussianBlur stdDeviation="45.9621"/>
<feComposite in2="hardAlpha" operator="out"/>
<feColorMatrix type="matrix" values="0 0 0 0 0.729412 0 0 0 0 0.729412 0 0 0 0 0.729412 0 0 0 0.5 0"/>
<feBlend mode="normal" in2="BackgroundImageFix" result="effect1_dropShadow_341_4915"/>
<feBlend mode="normal" in="SourceGraphic" in2="effect1_dropShadow_341_4915" result="shape"/>
</filter>
<filter id="filter3_d_341_4915" x="80.4961" y="289.293" width="243.933" height="182.072" filterUnits="userSpaceOnUse" color-interpolation-filters="sRGB">
<feFlood flood-opacity="0" result="BackgroundImageFix"/>
<feColorMatrix in="SourceAlpha" type="matrix" values="0 0 0 0 0 0 0 0 0 0 0 0 0 0 0 0 0 0 127 0" result="hardAlpha"/>
<feOffset dy="3.67696"/>
<feGaussianBlur stdDeviation="18.3848"/>
<feComposite in2="hardAlpha" operator="out"/>
<feColorMatrix type="matrix" values="0 0 0 0 0.791667 0 0 0 0 0.791667 0 0 0 0 0.791667 0 0 0 0.25 0"/>
<feBlend mode="normal" in2="BackgroundImageFix" result="effect1_dropShadow_341_4915"/>
<feBlend mode="normal" in="SourceGraphic" in2="effect1_dropShadow_341_4915" result="shape"/>
</filter>
<filter id="filter4_d_341_4915" x="153.744" y="730.528" width="354.242" height="292.381" filterUnits="userSpaceOnUse" color-interpolation-filters="sRGB">
<feFlood flood-opacity="0" result="BackgroundImageFix"/>
<feColorMatrix in="SourceAlpha" type="matrix" values="0 0 0 0 0 0 0 0 0 0 0 0 0 0 0 0 0 0 127 0" result="hardAlpha"/>
<feOffset dy="9.19241"/>
<feGaussianBlur stdDeviation="45.9621"/>
<feComposite in2="hardAlpha" operator="out"/>
<feColorMatrix type="matrix" values="0 0 0 0 0.729412 0 0 0 0 0.729412 0 0 0 0 0.729412 0 0 0 0.5 0"/>
<feBlend mode="normal" in2="BackgroundImageFix" result="effect1_dropShadow_341_4915"/>
<feBlend mode="normal" in="SourceGraphic" in2="effect1_dropShadow_341_4915" result="shape"/>
</filter>
<filter id="filter5_d_341_4915" x="129.552" y="485.091" width="354.242" height="292.381" filterUnits="userSpaceOnUse" color-interpolation-filters="sRGB">
<feFlood flood-opacity="0" result="BackgroundImageFix"/>
<feColorMatrix in="SourceAlpha" type="matrix" values="0 0 0 0 0 0 0 0 0 0 0 0 0 0 0 0 0 0 127 0" result="hardAlpha"/>
<feOffset dy="9.19241"/>
<feGaussianBlur stdDeviation="45.9621"/>
<feComposite in2="hardAlpha" operator="out"/>
<feColorMatrix type="matrix" values="0 0 0 0 0.729412 0 0 0 0 0.729412 0 0 0 0 0.729412 0 0 0 0.5 0"/>
<feBlend mode="normal" in2="BackgroundImageFix" result="effect1_dropShadow_341_4915"/>
<feBlend mode="normal" in="SourceGraphic" in2="effect1_dropShadow_341_4915" result="shape"/>
</filter>
<filter id="filter6_d_341_4915" x="452.04" y="901.533" width="245.514" height="183.654" filterUnits="userSpaceOnUse" color-interpolation-filters="sRGB">
<feFlood flood-opacity="0" result="BackgroundImageFix"/>
<feColorMatrix in="SourceAlpha" type="matrix" values="0 0 0 0 0 0 0 0 0 0 0 0 0 0 0 0 0 0 127 0" result="hardAlpha"/>
<feOffset dy="3.75604"/>
<feGaussianBlur stdDeviation="18.7802"/>
<feComposite in2="hardAlpha" operator="out"/>
<feColorMatrix type="matrix" values="0 0 0 0 0.791667 0 0 0 0 0.791667 0 0 0 0 0.791667 0 0 0 0.25 0"/>
<feBlend mode="normal" in2="BackgroundImageFix" result="effect1_dropShadow_341_4915"/>
<feBlend mode="normal" in="SourceGraphic" in2="effect1_dropShadow_341_4915" result="shape"/>
</filter>
<linearGradient id="paint0_linear_341_4915" x1="594.979" y1="1082.96" x2="594.979" y2="1576.59" gradientUnits="userSpaceOnUse">
<stop stop-color="white" stop-opacity="0"/>
<stop offset="1" stop-color="#F7F7F7"/>
</linearGradient>
<linearGradient id="paint1_linear_341_4915" x1="480.684" y1="600.312" x2="480.684" y2="617.306" gradientUnits="userSpaceOnUse">
<stop stop-color="#00D8FF"/>
<stop offset="1" stop-color="#0E5089"/>
</linearGradient>
<linearGradient id="paint2_linear_341_4915" x1="486.491" y1="632.588" x2="512.184" y2="632.588" gradientUnits="userSpaceOnUse">
<stop stop-color="#F02D1F"/>
<stop offset="1" stop-color="#9E1D1C"/>
</linearGradient>
<linearGradient id="paint3_linear_341_4915" x1="501.853" y1="618.778" x2="489.062" y2="630.54" gradientUnits="userSpaceOnUse">
<stop stop-color="#F02D1F"/>
<stop offset="1" stop-color="#9E1D1C"/>
</linearGradient>
<linearGradient id="paint4_linear_341_4915" x1="487.495" y1="624.757" x2="501.213" y2="624.482" gradientUnits="userSpaceOnUse">
<stop stop-color="#E6E9EF"/>
<stop offset="1" stop-color="#95AAB1"/>
</linearGradient>
<linearGradient id="paint5_linear_341_4915" x1="322.001" y1="606.361" x2="291.268" y2="637.094" gradientUnits="userSpaceOnUse">
<stop stop-color="#FF2D55"/>
<stop offset="1" stop-color="#FFBC5B"/>
</linearGradient>
<linearGradient id="paint6_linear_341_4915" x1="307.086" y1="614.121" x2="307.086" y2="630.42" gradientUnits="userSpaceOnUse">
<stop stop-color="#A524B3"/>
<stop offset="1" stop-color="#FF2D55"/>
</linearGradient>
<linearGradient id="paint7_linear_341_4915" x1="319.034" y1="622.815" x2="319.034" y2="634.767" gradientUnits="userSpaceOnUse">
<stop stop-color="#A524B3"/>
<stop offset="1" stop-color="#FF2D55"/>
</linearGradient>
<linearGradient id="paint8_linear_341_4915" x1="370.924" y1="1004.81" x2="396.889" y2="982.563" gradientUnits="userSpaceOnUse">
<stop stop-color="#BEEA2E"/>
<stop offset="1" stop-color="#52BA00"/>
</linearGradient>
<clipPath id="clip0_341_4915">
<rect width="512" height="1080" fill="white"/>
</clipPath>
</defs>
</svg>
