<svg width="150" height="150" viewBox="0 0 150 150" fill="none" xmlns="http://www.w3.org/2000/svg">
<path fill-rule="evenodd" clip-rule="evenodd" d="M101.95 105.371C95.0833 111.735 85.987 115.6 75.8278 115.6C60.3466 115.6 46.5229 106.624 39.6302 93.5015L39.4479 93.1504C36.6178 87.6327 35 81.4025 35 74.7999C35 68.2533 36.59 62.0733 39.3748 56.5911L39.5809 56.1906C46.457 43.0171 60.3102 34 75.8277 34C86.3446 34 95.7197 38.1449 102.664 44.9135L91.5431 56.1854C87.4581 52.6586 82.1844 50.5406 76.3297 50.5406C65.7929 50.5406 56.5172 57.4028 53.0269 66.9924L52.9054 67.3343C52.0318 69.8495 51.5519 72.5454 51.5519 75.3516C51.5519 78.0346 51.9932 80.6151 52.7947 83.036C56.0877 92.9773 65.5474 100.162 76.3298 100.162C81.5574 100.162 86.3101 98.4595 90.178 95.5875L90.422 95.4041C94.5486 92.2563 97.6335 87.7597 99.1154 82.5187H75.8275V67.0813H114.307C114.757 69.5815 115 72.1601 115 74.8C115 86.8497 110.114 97.6747 102.194 105.142L101.95 105.371Z" fill="white"/>
</svg>
