<svg width="150" height="150" viewBox="0 0 150 150" fill="none" xmlns="http://www.w3.org/2000/svg">
<path fill-rule="evenodd" clip-rule="evenodd" d="M75.0001 25C84.3811 25 93.0827 27.5553 100.576 32.0468C102.593 33.2514 103.59 34.0495 103.59 35.1903C103.59 39.9694 90.1738 44.9343 72.876 44.9343C55.3967 44.9343 45.5445 40.4015 45.5445 36.1858C45.5445 34.7557 46.8141 33.6432 49.0698 32.2549C56.59 27.6445 65.5537 25 75.0001 25ZM108.019 37.5987C108.229 37.9279 108.334 38.2793 108.334 38.7523C108.334 44.3055 91.3384 54.1293 64.2834 54.1293C44.4042 54.1293 40.6824 46.7547 40.6824 42.0648C40.6824 40.3884 41.3254 38.673 42.7414 36.9309C42.8187 36.8273 42.7531 36.7874 42.6638 36.8645C40.0813 39.0531 37.7084 41.5157 35.6268 44.1741C34.6322 45.4314 34.0148 46.5451 34.0148 47.2124C34.0148 56.9314 58.3849 63.9781 81.1717 63.9781C105.451 63.9781 116.287 56.0521 116.287 49.0865C116.287 46.5971 115.318 45.1439 112.839 42.3265C111.23 40.4937 109.708 39.0013 108.097 37.5323C108.019 37.4681 107.965 37.5204 108.019 37.5987ZM26.2453 63.8986C26.7285 61.3577 28.3539 56.4482 29.8202 53.5381C29.8601 53.4584 29.9379 53.4734 29.9131 53.5644C29.6661 54.5599 29.4681 55.5166 29.4681 56.473C29.4681 66.4272 45.9751 74.3104 65.7611 74.3104C84.0278 74.3104 120.231 65.9435 119.799 52.9613C119.785 52.8699 119.853 52.8584 119.891 52.9358C121.055 55.3077 122.431 58.6857 123.165 61.5824C123.822 64.1746 123.795 66.0984 123.283 67.9205C120.505 77.8185 103.354 83.2425 81.276 83.2425C45.0871 83.2425 29.5727 72.8302 26.5055 66.3226C26.1237 65.5102 26.0335 64.9873 26.2453 63.8986ZM64.9501 95.0175C39.3598 95.0175 27.2934 83.099 25.1046 74.9655C25.0776 74.8478 25 74.8736 25 74.9794C25 77.7175 25.2741 81.2511 25.7456 83.5965C25.9705 84.7382 26.8997 86.53 28.262 87.9581C34.4586 94.4171 49.9075 103.468 76.6627 103.468C113.116 103.468 121.45 91.3249 123.152 87.3317C124.369 84.4759 125 79.3149 125 74.9796C125 73.9305 124.974 73.0926 124.934 72.2699C124.934 72.1364 124.857 72.1254 124.83 72.2555C123.008 82.0266 91.8636 95.0175 64.9501 95.0175ZM112.305 107.016C104.219 113.655 90.6979 117.009 78.3937 117.009C55.0189 117.009 36.0973 109.768 29.8604 96.5112C29.8202 96.4081 29.8861 96.3696 29.952 96.4594C36.6472 106.164 53.748 111.246 69.6413 111.246C92.1263 111.246 113.902 104.344 121.422 93.2772C121.502 93.158 121.568 93.2096 121.529 93.3156C120.663 95.4898 119.601 97.7018 118.514 99.5635C116.626 102.799 114.518 105.207 112.305 107.016ZM74.9996 124.959C63.4558 124.959 52.8159 121.016 44.339 114.455C44.2602 114.39 44.2992 114.311 44.4042 114.363C49.8944 117.427 59.6163 120.86 75.0001 120.86C92.7021 120.86 103.943 115.11 107.887 112.476C107.992 112.414 108.045 112.476 107.938 112.57C99.1489 120.269 87.6324 124.959 74.9996 124.959Z" fill="#F9F9F9"/>
</svg>
