<svg width="150" height="150" viewBox="0 0 150 150" fill="none" xmlns="http://www.w3.org/2000/svg">
<path fill-rule="evenodd" clip-rule="evenodd" d="M37.7768 90.5584C48.4081 87.6088 55.0004 88.1578 59.8578 91.2869L59.8601 91.2871C62.3197 92.8757 65.268 95.1805 66.3079 96.7444C63.1867 94.452 58.9003 93.3177 55.9292 93.5918C52.3154 93.6517 50.8693 96.4589 50.8693 96.4589C46.9139 89.2573 35.6081 92.369 31.6491 93.4586C31.2552 93.567 30.9341 93.6554 30.7001 93.7116C30.2969 93.8083 29.8631 93.915 29.406 94.0273C26.9316 94.6356 23.7745 95.4116 21.091 95.6936C16.5578 96.0756 12.7584 94.2488 10.9284 90.8097C8.56259 85.8531 10.1408 79.7634 11.886 75.5123C14.9126 68.4663 20.2622 62.0293 26.9478 57.384C30.0058 55.5091 33.3192 53.8133 36.8768 54.0166C37.9158 54.2077 38.7525 54.7688 39.2368 55.5808C40.3923 57.862 38.9234 60.3097 37.9295 61.5878C37.0073 62.722 34.8694 63.152 34.9546 61.0862C35.0136 59.7368 36.1133 58.7336 36.5139 58.4229C37.0075 58.1008 37.6461 58.0409 38.0263 58.0409C38.3866 57.7062 38.665 55.3661 35.6874 56.1303C31.8021 57.3482 28.8599 60.3817 25.6879 63.9164C20.005 70.7111 16.8058 76.837 15.6219 83.2025C15.1114 87.1071 15.795 89.818 17.7016 91.5017C21.9544 94.4389 25.3381 93.605 33.3523 91.6301C34.6897 91.3006 36.156 90.9393 37.7768 90.5584ZM134.16 58.8999C131.174 60.596 128.079 61.6944 124.332 61.3123C123.293 62.483 122.282 63.689 121.35 64.9308C126.609 66.2683 132.184 63.2948 135.294 60.4649C138.583 57.6106 140.27 54.0163 140.27 54.0163C140.27 54.0163 137.804 56.8344 134.16 58.9L134.16 58.8999ZM124.317 91.6194C123.896 91.9059 123.304 91.6857 123.526 91.029C124.077 89.3571 126.268 85.95 126.268 85.95L132.37 75.1269H128.19C127.991 75.4532 127.566 76.2027 127.566 76.2027C127.373 75.8805 126.795 75.1642 126.557 75.0095C125.535 74.3641 124.037 74.6693 123.004 75.2543C118.569 77.8476 115.317 82.9383 112.747 86.9623L112.645 87.1217C112.645 87.1217 109.923 91.6221 108.412 91.9569C107.233 92.0525 107.354 90.4635 107.405 90.0933C107.861 87.4178 108.921 84.8744 109.988 82.5695C112.158 81.0649 114.635 79.0945 116.886 76.9331C121.771 72.2633 125.89 66.9728 126.491 65.7908C126.491 65.7908 125.84 65.9223 125.071 65.946C121.312 71.1885 113.621 78.8081 111.29 79.9419C112.323 77.4576 118.996 65.5994 124.676 59.9274L125.569 59.0672C126.951 57.7178 128.383 56.3325 129.499 56.1056C129.617 56.0937 129.768 56.1056 129.899 56.3807C129.949 57.4314 129.558 58.2077 129.109 59.0914L128.48 60.3813C128.48 60.3813 129.371 60.2141 129.956 60.0225C130.635 58.7453 131.387 57.3118 131.11 55.6045C131.017 55.0551 130.619 54.6372 130.1 54.5415C128.406 54.2191 126.559 55.4726 125.074 56.488L125.014 56.5236C117.377 62.5066 110.928 71.1292 105.29 82.904C104.882 83.214 103.303 83.5846 103.035 83.4052C103.591 82.2591 104.292 80.7182 104.643 79.0464C104.704 78.5686 104.76 78.0792 104.76 77.6016C104.76 76.5737 104.514 75.6068 103.593 74.9382C102.513 74.4007 101.179 74.6517 100.279 75.0575C96.2491 76.7294 93.2372 80.8617 91.0637 84.2646C89.8947 86.4267 88.7291 88.7422 88.4064 91.3941C88.1791 93.4716 88.6419 94.8091 89.8231 95.4782C91.0379 96.0987 92.567 95.4537 93.1676 95.1435C97.2504 92.994 100.103 88.6831 102.352 84.742C102.355 84.7416 102.36 84.7411 102.366 84.7406C102.375 84.7399 102.387 84.7391 102.402 84.7381L102.475 84.7339C102.823 84.7138 103.816 84.6567 104.598 84.4554C104.61 84.4554 104.615 84.4554 104.636 84.468C104.583 84.6463 104.103 86.0798 104.103 86.0798C102.678 90.2592 102.018 93.1016 103.365 94.7856C105.288 97.1622 108.473 94.7024 111.064 91.4536C110.508 95.3466 112.525 95.9559 114.063 95.6576C115.83 95.1802 117.799 93.2929 118.713 92.3259C118.419 93.4602 118.499 95.4905 120.106 95.6933C121.052 95.8681 121.793 95.4515 122.587 95.0051L122.587 95.005L122.589 95.0039C122.72 94.9306 122.851 94.8565 122.986 94.7841C126.408 92.921 130.504 86.7128 131.567 84.9178H130.173L130.007 85.1688C128.521 87.4174 126.65 90.2494 124.318 91.6198L124.317 91.6194ZM101.734 83.1902C101.613 83.2743 99.4851 82.5574 99.0739 80.5871C98.7251 78.8907 99.8932 77.5652 101.023 76.8971C101.509 76.5147 102.239 76.3837 102.775 76.574C103.273 76.9088 103.408 77.5064 103.408 78.1503C103.408 78.5325 103.359 78.9248 103.314 79.2852L103.309 79.3209L103.299 79.4048C102.944 80.7299 102.402 82.0318 101.734 83.1903L101.734 83.1902ZM118.801 90.4511C118.799 90.4511 118.398 90.8092 118.398 90.8092L118.359 90.8437C117.797 91.3466 117.217 91.8657 116.52 91.5971C116.323 91.5254 116.184 91.263 116.151 91.0594C116.119 89.5958 116.775 88.2392 117.415 86.9185L117.415 86.9185L117.415 86.9184L117.421 86.9041L117.586 86.5576L117.682 86.3977C119.505 83.3518 121.63 79.803 124.726 77.327C125.257 76.944 125.833 76.6222 126.441 76.8732C126.581 77.0042 126.743 77.2314 126.743 77.458C126.743 77.53 126.68 77.7209 126.643 77.7803C125.866 79.0361 125.121 80.3473 124.397 81.6236L124.11 82.1275C122.518 84.9579 120.866 87.8833 118.801 90.4514L118.801 90.4511ZM93.3087 90.1474C93.3159 90.5286 93.3879 90.8812 93.6049 91.2036H93.6054C95.4155 93.3053 99.7549 87.2692 101.02 84.4507C100.001 84.0087 98.3139 82.9598 97.5686 81.3281H97.5647C95.7864 83.6125 93.2671 87.8058 93.3087 90.1474ZM75.5203 68.4366H71.6042L73.8136 64.8467H77.7305L75.5203 68.4366ZM93.6839 69.6598C95.0573 69.3263 100.608 65.134 101.231 57.9927L101.231 57.9925C101.256 57.7295 101.258 57.5389 101.174 57.2403C97.7542 58.9961 94.5663 62.4229 92.6991 66.4598C91.4313 69.4568 92.8516 69.8268 93.6839 69.6598ZM90.4145 75.9889C90.0168 75.1293 89.0727 74.5799 88.0666 74.6395C84.7993 74.9382 81.6035 77.6251 79.9254 81.4824C79.0449 83.465 78.5644 85.1009 78.2493 87.7041C79.2652 86.5342 81.3375 84.6116 83.6892 83.5606C83.6892 83.5606 84.0092 81.0648 85.641 78.8435C86.2584 77.9237 87.4941 76.443 88.8816 76.837C90.0938 77.2433 89.6678 80.5991 88.0566 83.8464C86.8644 86.2352 85.0401 88.6242 83.1943 90.2717C81.5624 91.6571 79.1479 93.3289 77.0354 92.0393C75.7048 91.2514 75.0262 89.603 75.1696 87.4774C75.8053 81.4469 78.5505 76.3116 82.4786 70.4601C86.5293 65.0264 90.9944 59.4496 97.0098 56.4752C98.2367 55.8543 99.3729 55.711 100.355 56.0932C100.355 56.0932 94.7085 59.1981 92.0167 64.9426L91.9868 65.0063C91.3048 66.4568 90.3936 68.3949 91.3387 70.1133C91.8398 71.0207 92.7296 71.0925 93.4459 71.0447C96.7452 70.2803 98.8768 67.1993 100.619 64.3813C101.628 62.2437 102.526 60.1179 102.526 57.753C102.526 57.4665 102.511 57.0845 102.487 56.7976C104.063 55.962 107.295 57.4425 107.295 57.4425C108.78 57.9341 111.25 59.5605 113.403 60.9777L113.403 60.9778C114.913 61.9714 116.266 62.8621 117.013 63.1868C117.898 62.16 119.352 60.6077 120.171 59.8313L118.986 59.1027C117.167 57.9927 115.25 56.9375 113.355 55.8953L113.108 55.7589C108.624 53.3111 104.974 54.1707 103.116 54.8396C102.386 55.1021 101.719 55.3291 101.719 55.3291C100.34 53.8245 98.0794 53.9674 96.4135 54.3737C90.4227 56.0933 84.8606 60.2848 78.8975 67.5577C74.5133 73.2542 71.7935 78.1746 70.3445 83.0346C69.2272 86.3065 68.8877 91.119 71.6147 93.9733C73.9332 96.3968 77.0076 95.8719 79.1788 95.0004C83.8828 92.6836 88.1105 87.6914 90.2174 81.9476C90.7257 80.2401 91.2899 77.8278 90.4147 75.9885L90.4145 75.9889ZM37.4743 72.2871C37.4743 72.2871 38.2653 70.4721 38.2732 70.4483H38.2732C38.5449 69.636 38.7844 68.7643 38.7843 67.9882C38.7843 67.4146 38.6532 66.8894 38.3075 66.4832C37.7468 66.0412 36.7813 66.268 36.1602 66.6983C35.5129 67.1877 34.0438 68.5371 34.4015 70.2568C34.6607 71.1404 35.5018 71.8809 36.6168 72.227L36.9718 72.2871L36.9992 72.2934C37.1949 72.3389 37.3649 72.3783 37.4743 72.2871ZM36.5739 73.8991C36.5739 73.8991 36.538 74.007 36.5202 74.0422C36.5157 74.0422 34.722 76.9677 34.722 76.9677L34.696 77.0024C33.6179 78.4419 32.2744 80.2356 30.5984 81.0999C30.0976 81.2672 29.4054 81.3749 29.0526 80.9333C28.3048 80.0375 28.6902 78.7956 29.0034 77.7925L29.1142 77.4342C30.0119 74.9983 31.4365 72.8483 32.823 70.8536C32.8402 70.8419 32.8791 70.83 32.8931 70.83C32.8938 70.8324 32.8945 70.8343 32.8953 70.836L32.8972 70.8397C32.8999 70.8449 32.9028 70.8504 32.9043 70.8659C33.7744 72.5375 35.4058 73.3134 36.6259 73.6722C36.6333 73.6722 36.6411 73.6841 36.6411 73.7081C36.6413 73.7437 36.6214 73.7918 36.5739 73.8989L36.5739 73.8991ZM62.7181 67.3911C62.1488 67.8925 59.8135 70.8663 59.0112 71.9767L59.0112 71.9765C55.7851 76.3235 54.7396 79.4636 54.6534 80.4903C54.6229 80.801 54.7298 81.0996 55.0006 81.2788C55.2257 81.4465 55.5638 81.4226 55.7689 81.3625C57.2072 80.5624 58.089 79.416 58.9648 78.0788C58.9648 78.0788 59.5893 77.1237 59.5854 77.1355C61.5683 73.8393 63.6773 70.1732 65.4643 66.9729C65.3981 66.4478 64.6328 65.7066 62.7181 67.3911ZM39.1266 64.7159C36.6512 63.0919 31.676 66.1968 27.6912 71.5223C24.0471 76.2996 22.4736 81.852 24.186 84.4198C26.7334 87.441 31.4624 83.0465 33.4734 80.6943L33.7328 80.4193C35.0751 78.9775 36.1179 77.248 37.123 75.5809L37.1796 75.487C37.1796 75.487 38.1195 73.9345 38.1644 73.8627C38.7453 73.7557 39.445 73.5884 40.2335 73.3614C40.2328 73.3638 40.2185 73.3889 40.1926 73.4343L40.1924 73.4346C39.8325 74.0659 37.2375 78.6175 37.5235 80.9563C37.5331 81.0336 37.541 81.1315 37.5503 81.2461L37.5503 81.2462C37.6328 82.2661 37.8216 84.6013 40.2743 85.3634C43.9105 85.9728 46.8144 83.1541 49.3756 80.6463C49.3756 80.6463 49.8121 80.2287 50.059 79.9903C49.9965 80.2405 49.9151 80.5742 49.9151 80.5742C48.8505 84.2763 50.2855 85.053 51.1831 85.3397C53.7535 86.0869 56.7979 82.588 57.1194 82.2185C57.1308 82.2054 57.1387 82.1963 57.1432 82.1913C57.1457 82.1885 57.147 82.1871 57.1472 82.1871C57.1385 82.3169 57.1279 82.4443 57.1175 82.5693C57.0288 83.641 56.9542 84.5417 58.1262 85.2796C59.3614 85.7218 60.6115 85.0478 61.5617 84.4148C64.9843 82.0025 67.7416 78.2272 69.9685 74.9636H68.5479C68.5463 74.9636 68.5125 75.0105 68.4506 75.0963L68.4504 75.0966L68.4504 75.0966C67.8696 75.9021 64.8239 80.1261 62.777 81.1192L62.7707 81.122C62.7178 81.1465 62.3449 81.3193 62.1237 81.1633C61.8296 80.9124 61.9456 80.3909 62.1269 80.0214C62.1383 79.9973 70.8738 64.8467 70.8738 64.8467H66.7494C66.7494 64.8467 66.2988 65.5757 66.2621 65.6234C66.2469 65.6104 66.2203 65.567 66.1918 65.5205C66.1681 65.482 66.1432 65.4414 66.1224 65.4142C63.5671 61.8795 57.7802 67.3165 53.4234 73.6213C51.7461 76.0458 49.6107 78.7756 47.3964 80.7463C47.3964 80.7463 44.116 83.7533 42.7144 81.5928C42.202 80.685 42.3596 79.358 42.6486 78.4865C44.2805 73.841 47.0925 69.6254 50.2924 67.0811C51.1958 66.377 52.1776 66.1733 52.6649 66.472C53.1291 66.7471 53.204 67.4272 52.9103 67.893C52.165 67.8692 51.568 68.0957 51.0826 68.5973C50.1264 69.6005 49.7942 70.568 50.0982 71.4757C51.5751 73.5775 54.5206 69.4215 54.3781 66.8898C54.3272 65.9821 53.8429 65.1224 53.1202 64.7041C52.0431 64.0595 50.3999 64.2264 49.3365 64.7403C47.9129 65.2775 45.6595 67.1522 44.3441 68.6094C42.6882 70.4368 39.8482 72.4667 38.96 72.2394C38.9872 72.1669 39.0327 72.0584 39.0909 71.9197C39.656 70.5731 41.4142 66.3832 39.1263 64.7163L39.1266 64.7159Z" fill="#F9F9F9"/>
</svg>
