<svg width="150" height="150" viewBox="0 0 150 150" fill="none" xmlns="http://www.w3.org/2000/svg">
<path d="M122.675 64L117.219 75.6717L115.167 71.2492H112.948L116.322 78.4833H118.116L124.878 64H122.675Z" fill="#D52B1E"/>
<path fill-rule="evenodd" clip-rule="evenodd" d="M69.2401 66.1125H64.8176V70.0335H69.2401V66.1125ZM46.4742 82.9059C44.5289 82.9059 43.3435 81.6445 43.1155 79.6992H53.5106C53.541 76.5989 52.7204 74.1217 51.003 72.5715C49.7872 71.4469 48.1915 70.8238 46.155 70.8238C41.8085 70.8238 38.7994 74.1217 38.7994 78.4378C38.7994 82.7843 41.6717 86.0974 46.4438 86.0974C48.2523 86.0974 49.6809 85.611 50.8663 84.8056C52.1277 83.9393 53.0395 82.6627 53.2827 81.4013H49.0578C48.6474 82.3436 47.766 82.9059 46.4742 82.9059ZM103.663 85.6718H99.2705L99.2553 71.2493H103.511V73.225H103.602C104.635 71.6749 106.018 70.8238 107.994 70.8238C111.094 70.8238 113.009 73.073 113.009 76.2645V85.6718H108.617V77.1004C108.617 75.5654 107.827 74.5016 106.307 74.5016C104.726 74.5016 103.663 75.7934 103.663 77.6323V85.6718ZM82.9787 78.4986C82.9787 74.1521 86.0486 70.8542 90.6383 70.8542C95.228 70.8542 98.3131 74.1521 98.2979 78.4986C98.2979 82.8147 95.228 86.1429 90.6383 86.1429C86.0486 86.1429 82.9787 82.8147 82.9787 78.4986ZM90.6079 82.8907C88.5258 82.8907 87.4164 81.1429 87.4164 78.4986C87.4164 75.8238 88.5106 74.1065 90.6079 74.1065C92.69 74.1065 93.845 75.8238 93.845 78.4986C93.8602 81.1429 92.7052 82.8907 90.6079 82.8907ZM82.7964 85.6718H70.4559V82.3587L77.2188 74.8056V74.7144H70.4559V71.2341H82.4924V74.6232L75.8055 82.1156V82.2068H82.7964V85.6718ZM64.8176 85.6718H69.2401V71.2493H64.8176V85.6718ZM58.9666 85.6718H54.5593V71.2493H58.769V73.6505H58.8602C59.848 71.9636 61.003 71.1733 62.7204 71.1733C63.1307 71.1733 63.3891 71.1885 63.617 71.2797V75.0791H63.5258C60.7751 74.6992 58.9666 76.0366 58.9666 79.0457V85.6718ZM49.0426 76.8116C48.8602 75.1247 47.7964 73.9697 46.2462 73.9697C44.4225 73.9697 43.4954 75.1095 43.1459 76.8116H49.0426ZM30.0152 85.6718H34.6353L39.6505 71.2493H35.228L32.4164 80.5198H32.3556L29.5441 71.2493H25L30.0152 85.6718Z" fill="#F9F9F9"/>
</svg>
