<?xml version="1.0" encoding="UTF-8"?>
<svg width="18px" height="18px" viewBox="0 0 18 18" version="1.1" xmlns="http://www.w3.org/2000/svg" xmlns:xlink="http://www.w3.org/1999/xlink">
    <title>Apple Icon</title>
    <defs>
        <polygon id="path-1" points="0 0.00016 5.99985 0.00016 5.99985 11.52 0 11.52"></polygon>
    </defs>
    <g id="Apple-Icon" stroke="none" stroke-width="1" fill="none" fill-rule="evenodd">
        <g id="Group-3" transform="translate(9.000000, 4.000000)">
            <mask id="mask-2" fill="white">
                <use xlink:href="#path-1"></use>
            </mask>
            <g id="Clip-2"></g>
        </g>
        <g id="Icon" transform="translate(2.000000, 0.000000)" fill="#2C2C2C" fill-rule="nonzero">
            <path d="M9.63367772,3.04295605 C10.2200799,2.24480364 10.6711586,1.09745956 10.535835,0 C9.63367772,0.0498845253 8.59619689,0.648498829 7.96468682,1.44665123 C7.42339247,2.14503459 6.92720598,3.29237867 7.06252957,4.38983823 C8.00979468,4.48960728 9.00216765,3.84110845 9.63367772,3.04295605 L9.63367772,3.04295605 Z" id="Path"></path>
            <path d="M12.144626,11.0234738 L0.217321215,11.0234738 L0.217321215,11.0234738 L12.144626,11.0234738 L12.144626,11.0234738 C11.8745738,10.4342802 11.7395477,9.57315117 11.8295651,8.89331244 L11.8295651,8.84798986 L11.8295651,8.84798986 C11.9195825,7.94153821 12.5497043,6.98976398 12.9997913,6.62718332 L12.9997913,6.62718332 L12.9997913,6.62718332 L12.9997913,6.62718332 L12.9997913,6.62718332 C13.0898087,6.49121557 13.4048695,6.26460266 13.5849043,6.12863491 C12.8647652,5.04089294 11.6495303,4.45169937 10.3892868,4.40637679 C9.12904329,4.31573162 7.86879977,5.22218327 7.14866061,5.17686069 C6.47353015,5.17686069 5.43833011,4.40637679 4.35812137,4.45169937 L4.35812137,4.45169937 C4.31311267,4.45169937 4.13307788,4.45169937 4.13307788,4.45169937 C2.69279957,4.49702195 1.43255604,5.31282843 0.712416886,6.62718332 L0.712416886,6.62718332 L0.712416886,6.62718332 L0.712416886,6.62718332 C0.442364702,7.08040914 0.0822951231,8.16815112 0.0372864257,8.84798986 L0.0372864257,8.84798986 L0.0372864257,8.89331244 C-0.052730969,9.34653826 0.0372864257,10.4796028 0.12730382,11.0234738 L0.12730382,11.0234738 C0.12730382,11.0234738 0.12730382,11.0234738 0.12730382,11.0687964 L0.12730382,11.0687964 C0.172312518,11.6126674 0.487373399,12.7004094 0.667408189,13.1989578 L0.667408189,13.1989578 L0.667408189,13.1989578 C0.847442978,13.7881513 1.43255604,14.8758933 1.79262562,15.4197643 L1.79262562,15.4197643 L1.79262562,15.4197643 C2.51276478,16.4621837 3.36793003,17.6858934 4.53815616,17.5952483 C5.6183649,17.5499257 6.02344317,16.8700869 7.37370409,16.8700869 C8.67895632,16.8700869 9.0390259,17.5499257 10.209252,17.5499257 C11.3794782,17.5046031 12.0996173,16.4621837 12.8647652,15.3744417 C13.2248348,14.8305707 13.7649391,13.7881513 13.9899826,13.1536352 L13.9899826,13.1536352 C13.9899826,13.1083126 14.0349913,12.9723449 14.08,12.9270223 C13.3148521,12.7457319 12.4596869,11.7033125 12.144626,11.0234738 L12.144626,11.0234738 Z" id="Path"></path>
        </g>
    </g>
</svg>