<?xml version="1.0" encoding="utf-8"?>
<!-- Generator: Adobe Illustrator 21.0.2, SVG Export Plug-In . SVG Version: 6.00 Build 0)  -->
<svg version="1.1" id="Layer_1" xmlns="http://www.w3.org/2000/svg" xmlns:xlink="http://www.w3.org/1999/xlink" x="0px" y="0px"
	 viewBox="0 0 22 23" style="enable-background:new 0 0 22 23;" xml:space="preserve">
<style type="text/css">
	.st0{fill:none;enable-background:new    ;}
	.st1{fill:#4468A5;}
	.st2{fill:#FFFFFF;}
</style>
<path class="st0" d="M0,0"/>
<path class="st1" d="M20,23H2.1c-1.1,0-2-0.9-2-2V2c0-1.1,0.9-2,2-2H20c1.1,0,2,0.9,2,2v19C22,22.1,21.1,23,20,23z"/>
<path id="facebook" class="st2" d="M16.8,9.2h1.7V6.6h-2.1v0c-3.3,0.1-3.9,1.8-4,3.6h0v2.1h-1.7V15h1.7V21h3.3V15h2.5l0.5-2.6h-3
	v-1.9C15.8,9.9,16.2,9.3,16.8,9.2z"/>
</svg>
