<?xml version="1.0" encoding="utf-8"?>
<!-- Generator: Adobe Illustrator 21.0.2, SVG Export Plug-In . SVG Version: 6.00 Build 0)  -->
<svg version="1.1" id="Layer_1" xmlns="http://www.w3.org/2000/svg" xmlns:xlink="http://www.w3.org/1999/xlink" x="0px" y="0px"
	 viewBox="0 0 22 23" style="enable-background:new 0 0 22 23;" xml:space="preserve">
<style type="text/css">
	.st0{fill:none;enable-background:new    ;}
	.st1{fill:#3284FF;}
	.st2{fill:#FF3424;}
	.st3{fill:#FFBB00;}
	.st4{fill:#26B14C;}
</style>
<path class="st0" d="z"/>
<g>
	<path class="st1" d="M21.8,11.5c0-0.7-0.1-1.4-0.2-2.1h-0.9h-3.3h-6.2v4.2h6.3c-0.4,1.4-1.3,2.7-2.4,3.5l3.2,2.6
		C20.4,17.7,21.8,14.7,21.8,11.5z"/>
	<path class="st2" d="M11.4,5c1.6,0,3,0.6,4.1,1.5l3-3c-1.9-1.8-4.4-2.9-7.2-2.9C7,0.5,3.2,3,1.4,6.6l3.7,2.8C6,6.8,8.5,5,11.4,5z"
		/>
	<path class="st3" d="M1.5,16.5L5,13.7c-0.2-0.7-0.3-1.3-0.3-2.1c0-0.8,0.1-1.5,0.4-2.3L1.4,6.6c-0.7,1.5-1.2,3.1-1.2,4.9
		C0.2,13.3,0.7,15,1.5,16.5z"/>
	<path class="st4" d="M5,13.7l-3.5,2.8c1.9,3.5,5.6,6,9.7,6c2.8,0,5.2-1.1,7.1-2.8l-3.2-2.6c-1,0.8-2.3,1.2-3.7,1.2
		C8.5,18.3,5.9,16.4,5,13.7z"/>
</g>
</svg>
